<svg width="20" height="21" viewBox="0 0 20 21" fill="none" xmlns="http://www.w3.org/2000/svg">
<rect width="20" height="20" transform="translate(0 0.691406)" fill="black"/>
<g clip-path="url(#clip0_1009_4861)">
<path d="M8.9369 10.3317C9.18593 10.2064 9.37419 10.0669 9.5032 9.91615C9.73272 9.64463 9.84598 9.2846 9.84598 8.83831C9.84598 8.40403 9.73272 8.03275 9.5062 7.72147C9.12817 7.21443 8.48837 6.95491 7.58379 6.94141H4V14.2568H7.34152C7.71806 14.2568 8.06683 14.2245 8.38936 14.1585C8.71189 14.0917 8.99091 13.9695 9.22718 13.791C9.4372 13.6357 9.61271 13.4429 9.75222 13.2157C9.97274 12.8721 10.083 12.4829 10.083 12.0493C10.083 11.6293 9.98624 11.2715 9.79423 10.9775C9.59996 10.6835 9.31494 10.4682 8.9369 10.3317ZM5.47837 8.21201H7.0925C7.44728 8.21201 7.73981 8.25026 7.96933 8.32602C8.23485 8.43628 8.36761 8.66055 8.36761 9.00258C8.36761 9.30935 8.26635 9.52387 8.06608 9.64463C7.86432 9.76539 7.60255 9.82614 7.28152 9.82614H5.47837V8.21201ZM8.03083 12.8586C7.85232 12.9449 7.60105 12.9877 7.27927 12.9877H5.47837V11.0367H7.30402C7.62205 11.039 7.86957 11.081 8.04658 11.1598C8.36161 11.3023 8.51837 11.5633 8.51837 11.9451C8.51837 12.3951 8.35636 12.6981 8.03083 12.8586Z" fill="white"/>
<path d="M14.8467 7.28125H11.6686V8.19182H14.8467V7.28125Z" fill="white"/>
<path d="M15.9508 10.8753C15.8847 10.4515 15.7392 10.0787 15.5127 9.75697C15.2644 9.39244 14.9494 9.12541 14.5661 8.95665C14.1844 8.78714 13.7546 8.70238 13.276 8.70313C12.4727 8.70313 11.8202 8.9544 11.3154 9.45319C10.8121 9.95348 10.5601 10.6728 10.5601 11.6104C10.5601 12.6102 10.8383 13.3325 11.3979 13.7758C11.9552 14.2198 12.5987 14.4411 13.3293 14.4411C14.2136 14.4411 14.9014 14.1778 15.3927 13.6528C15.707 13.3213 15.8847 12.995 15.9237 12.6747H14.4596C14.3749 12.833 14.2766 12.9567 14.1641 13.0467C13.9601 13.2117 13.6946 13.2943 13.369 13.2943C13.0593 13.2943 12.7967 13.226 12.5777 13.0902C12.2162 12.8727 12.0272 12.4917 12.0032 11.9494H15.9988C16.0048 11.4821 15.9898 11.1228 15.9508 10.8753ZM12.0392 11.0156C12.0917 10.6638 12.2192 10.3848 12.4217 10.1785C12.6242 9.97298 12.9108 9.86948 13.2775 9.86873C13.6158 9.86873 13.8986 9.96548 14.1289 10.1597C14.3561 10.3555 14.4844 10.6398 14.5106 11.0156H12.0392Z" fill="white"/>
</g>
<defs>
<clipPath id="clip0_1009_4861">
<rect width="12" height="12" fill="white" transform="translate(4 4.69141)"/>
</clipPath>
</defs>
</svg>
