<svg width="28" height="28" viewBox="0 0 28 28" fill="none" xmlns="http://www.w3.org/2000/svg">
<g clip-path="url(#clip0_1009_4892)">
<rect x="1.53366" y="1.47309" width="25.5477" height="25.5477" rx="2.01692" fill="white" stroke="black" stroke-width="1.34462"/>
<path d="M18.7181 15.3688C17.976 15.3688 17.2807 15.0546 16.6489 14.5431L16.8027 13.8211L16.8094 13.7943C16.9464 13.0256 17.381 11.7352 18.7181 11.7352C19.7209 11.7352 20.5365 12.5509 20.5365 13.5536C20.5331 14.5531 19.7176 15.3688 18.7181 15.3688ZM18.7181 9.89341C17.0099 9.89341 15.6862 11.0032 15.1481 12.8283C14.3258 11.5948 13.704 10.114 13.3397 8.86719H11.5012V13.6506C11.5012 14.5932 10.7323 15.362 9.78967 15.362C8.84701 15.362 8.07825 14.5932 8.07825 13.6506V8.86719H6.23958V13.6506C6.23289 15.6095 7.82738 17.2173 9.78619 17.2173C11.7451 17.2173 13.3396 15.6095 13.3396 13.6506V12.8484C13.6972 13.5938 14.1351 14.3459 14.6666 15.0145L13.5401 20.3092H15.4221L16.2377 16.4685C16.953 16.9264 17.7753 17.214 18.718 17.214C20.7336 17.214 22.3749 15.5627 22.3749 13.547C22.3749 11.5346 20.7336 9.89341 18.718 9.89341H18.7181Z" fill="black"/>
</g>
<defs>
<clipPath id="clip0_1009_4892">
<rect x="0.861351" y="0.800781" width="26.8923" height="26.8923" rx="2.68923" fill="white"/>
</clipPath>
</defs>
</svg>
