<svg width="16" height="20" viewBox="0 0 16 20" fill="none" xmlns="http://www.w3.org/2000/svg">
<path d="M8.75 5.2184C9.16722 5.09299 9.54685 4.86611 9.85491 4.55805C10.163 4.24999 10.3899 3.87036 10.5153 3.45314H15.5V1.95314H10.5153C10.3538 1.41142 10.0218 0.936294 9.56862 0.598457C9.11542 0.26062 8.56526 0.078125 8 0.078125C7.43474 0.078125 6.88458 0.26062 6.43138 0.598457C5.97819 0.936294 5.64617 1.41142 5.48473 1.95314H0.5V3.45314H5.48473C5.61014 3.87036 5.83703 4.24999 6.14509 4.55805C6.45315 4.86611 6.83278 5.09299 7.25 5.2184V17.7031H2.375V19.2031H13.625V17.7031H8.75V5.2184ZM6.875 2.70314C6.875 2.48063 6.94098 2.26313 7.0646 2.07812C7.18821 1.89312 7.36391 1.74892 7.56948 1.66377C7.77505 1.57862 8.00125 1.55635 8.21948 1.59975C8.43771 1.64316 8.63816 1.75031 8.79549 1.90764C8.95283 2.06498 9.05998 2.26543 9.10338 2.48366C9.14679 2.70189 9.12451 2.92809 9.03936 3.13366C8.95422 3.33922 8.81002 3.51492 8.62502 3.63854C8.44001 3.76216 8.2225 3.82814 8 3.82814C7.70163 3.82814 7.41548 3.70961 7.2045 3.49863C6.99353 3.28765 6.875 3.00151 6.875 2.70314Z" fill="#00C5F7"/>
</svg>
