<svg width="22" height="14" viewBox="0 0 22 14" fill="none" xmlns="http://www.w3.org/2000/svg">
<path d="M15 12C16.3833 12 17.5627 11.5123 18.538 10.537C19.5133 9.56167 20.0007 8.38267 20 7C20 5.61667 19.5123 4.43733 18.537 3.462C17.5617 2.48667 16.3827 1.99933 15 2C14.55 2 14.1123 2.05833 13.687 2.175C13.2617 2.29167 12.866 2.45833 12.5 2.675C12.9833 3.275 13.3543 3.94167 13.613 4.675C13.8717 5.40833 14.0007 6.18333 14 7C14 7.81667 13.8707 8.59167 13.612 9.325C13.3533 10.0583 12.9827 10.725 12.5 11.325C12.8667 11.5417 13.2627 11.7083 13.688 11.825C14.1133 11.9417 14.5507 12 15 12ZM11 10C11.3167 9.58334 11.5627 9.12067 11.738 8.612C11.9133 8.10334 12.0007 7.566 12 7C12 6.43333 11.9123 5.89567 11.737 5.387C11.5617 4.87833 11.316 4.416 11 4C10.6833 4.41667 10.4373 4.87933 10.262 5.388C10.0867 5.89667 9.99934 6.434 10 7C10 7.56667 10.0877 8.10433 10.263 8.613C10.4383 9.12167 10.684 9.584 11 10ZM7 12C7.45 12 7.88767 11.9417 8.313 11.825C8.73833 11.7083 9.134 11.5417 9.5 11.325C9.01667 10.725 8.64567 10.0583 8.387 9.325C8.12833 8.59167 7.99934 7.81667 8 7C8 6.18333 8.12933 5.40833 8.388 4.675C8.64667 3.94167 9.01733 3.275 9.5 2.675C9.13334 2.45833 8.73734 2.29167 8.312 2.175C7.88667 2.05833 7.44933 2 7 2C5.61667 2 4.43733 2.48767 3.462 3.463C2.48667 4.43833 1.99933 5.61733 2 7C2 8.38334 2.48767 9.56267 3.463 10.538C4.43833 11.5133 5.61733 12.0007 7 12ZM7 14C5.05 14 3.39567 13.3207 2.037 11.962C0.678334 10.6033 -0.000666176 8.94934 4.90437e-07 7C4.90437e-07 5.05 0.679334 3.39567 2.038 2.037C3.39667 0.678334 5.05067 -0.000666176 7 4.90436e-07C7.75 4.90436e-07 8.46267 0.108334 9.138 0.325C9.81334 0.541667 10.434 0.850001 11 1.25C11.5667 0.850001 12.1877 0.541667 12.863 0.325C13.5383 0.108334 14.2507 4.90436e-07 15 4.90436e-07C16.95 4.90436e-07 18.6043 0.679334 19.963 2.038C21.3217 3.39667 22.0007 5.05067 22 7C22 8.95 21.3207 10.6043 19.962 11.963C18.6033 13.3217 16.9493 14.0007 15 14C14.25 14 13.5373 13.8917 12.862 13.675C12.1867 13.4583 11.566 13.15 11 12.75C10.4333 13.15 9.81234 13.4583 9.137 13.675C8.46167 13.8917 7.74933 14 7 14Z" fill="#00C5F7"/>
</svg>
