<svg width="21" height="16" viewBox="0 0 21 16" fill="none" xmlns="http://www.w3.org/2000/svg">
<path d="M0.799805 3.625C0.799805 2.7962 1.12904 2.00134 1.7151 1.41529C2.30115 0.82924 3.096 0.5 3.9248 0.5H17.6748C18.5036 0.5 19.2985 0.82924 19.8845 1.41529C20.4706 2.00134 20.7998 2.7962 20.7998 3.625V12.375C20.7998 13.2038 20.4706 13.9987 19.8845 14.5847C19.2985 15.1708 18.5036 15.5 17.6748 15.5H3.9248C3.096 15.5 2.30115 15.1708 1.7151 14.5847C1.12904 13.9987 0.799805 13.2038 0.799805 12.375V3.625ZM3.9248 1.75C3.42752 1.75 2.95061 1.94754 2.59898 2.29917C2.24735 2.65081 2.0498 3.12772 2.0498 3.625V5.25H19.5498V3.625C19.5498 3.12772 19.3523 2.65081 19.0006 2.29917C18.649 1.94754 18.1721 1.75 17.6748 1.75H3.9248ZM2.0498 12.375C2.0498 12.8723 2.24735 13.3492 2.59898 13.7008C2.95061 14.0525 3.42752 14.25 3.9248 14.25H17.6748C18.1721 14.25 18.649 14.0525 19.0006 13.7008C19.3523 13.3492 19.5498 12.8723 19.5498 12.375V6.5H2.0498V12.375ZM14.4248 10.75C14.259 10.75 14.1001 10.8158 13.9829 10.9331C13.8657 11.0503 13.7998 11.2092 13.7998 11.375C13.7998 11.5408 13.8657 11.6997 13.9829 11.8169C14.1001 11.9342 14.259 12 14.4248 12H17.1748C17.3406 12 17.4995 11.9342 17.6167 11.8169C17.734 11.6997 17.7998 11.5408 17.7998 11.375C17.7998 11.2092 17.734 11.0503 17.6167 10.9331C17.4995 10.8158 17.3406 10.75 17.1748 10.75H14.4248Z" fill="#00C5F7"/>
</svg>
