<svg width="7" height="11" viewBox="0 0 7 11" fill="none" xmlns="http://www.w3.org/2000/svg">
<path d="M3.90678 5.03289C3.41363 5.03456 2.9292 5.16313 2.50012 5.40623C3.10422 3.84256 4.10616 2.46375 5.40678 1.40623C5.4812 1.34494 5.54282 1.2696 5.58811 1.18451C5.63341 1.09941 5.66151 1.00622 5.67079 0.91027C5.68008 0.814316 5.67038 0.717473 5.64223 0.62527C5.61409 0.533066 5.56807 0.447309 5.50678 0.372893C5.4455 0.298477 5.37016 0.23686 5.28506 0.191561C5.19997 0.146262 5.10678 0.118168 5.01083 0.108882C4.91487 0.0995964 4.81803 0.109301 4.72583 0.137442C4.63362 0.165583 4.54787 0.211609 4.47345 0.272893C1.80678 2.43956 0.620117 5.43956 0.620117 7.29956C0.624712 7.95722 0.820697 8.59931 1.18414 9.14744C1.54759 9.69557 2.06277 10.126 2.66678 10.3862C3.05769 10.5756 3.48577 10.6758 3.92012 10.6796C4.30242 10.6981 4.68452 10.6389 5.04325 10.5054C5.40197 10.3719 5.72984 10.1669 6.00698 9.90292C6.28413 9.63893 6.50477 9.32139 6.65553 8.96957C6.80628 8.61775 6.88402 8.23898 6.88402 7.85623C6.88402 7.47347 6.80628 7.0947 6.65553 6.74288C6.50477 6.39106 6.28413 6.07353 6.00698 5.80953C5.72984 5.54553 5.40197 5.34056 5.04325 5.20706C4.68452 5.07356 4.30242 5.01431 3.92012 5.03289H3.90678Z" fill="#00C5F7"/>
</svg>
