<svg width="23" height="24" viewBox="0 0 23 24" fill="none" xmlns="http://www.w3.org/2000/svg">
<path d="M2.12875 13.451L9.87068 22.7413C10.5481 23.5155 11.3384 23.9026 12.2417 23.9026C13.0481 23.9026 13.7417 23.6607 14.3223 23.1768L21.0481 17.5155C21.6933 16.9349 22.0642 16.2091 22.161 15.3381C22.2578 14.5317 22.0158 13.7413 21.4352 12.9671L13.6933 3.67683C12.8546 2.58005 11.7578 1.8865 10.4029 1.59618L3.67714 0.0477931C3.03197 -0.145755 2.41907 -0.000594031 1.83843 0.483277L1.01585 1.20908C0.531975 1.56392 0.290039 2.14457 0.290039 2.95102L0.677136 9.87037C0.838426 11.2575 1.3223 12.451 2.12875 13.451ZM3.29004 2.03166L10.1126 3.67683C10.8223 3.83812 11.532 4.2736 12.2417 4.98328L19.9836 14.2736C20.2416 14.5317 20.3223 14.822 20.2255 15.1446C20.2255 15.3381 20.0804 15.6123 19.79 15.9671L13.0642 21.6284C12.8384 21.822 12.5642 21.9107 12.2417 21.8946C11.9191 21.8784 11.6771 21.7575 11.5158 21.5317L3.77391 12.2413C3.16101 11.4671 2.85455 10.6768 2.85455 9.87037L2.37068 2.75747L3.29004 2.03166ZM6.0481 5.41876C6.0481 5.70908 5.95133 5.95102 5.75778 6.14457C5.56423 6.33812 5.3223 6.43489 5.03197 6.43489C4.74165 6.43489 4.49972 6.33812 4.30617 6.14457C4.11262 5.95102 4.01585 5.70908 4.01585 5.41876C4.01585 5.12844 4.11262 4.8865 4.30617 4.69295C4.49972 4.49941 4.74165 4.40263 5.03197 4.40263C5.3223 4.40263 5.56423 4.49941 5.75778 4.69295C5.95133 4.8865 6.0481 5.12844 6.0481 5.41876ZM6.58036 12.6284L16.0642 15.6284H16.4029C16.8546 15.6284 17.1933 15.3865 17.4191 14.9026C17.5158 14.6446 17.4997 14.3865 17.3707 14.1284C17.2416 13.8704 17.0481 13.693 16.79 13.5962L7.30617 10.5962C7.0481 10.4671 6.78197 10.4671 6.50778 10.5962C6.23359 10.7252 6.0481 10.9188 5.95133 11.1768C5.75778 11.9188 5.96746 12.4026 6.58036 12.6284ZM14.3223 17.2736C14.3223 17.693 14.1771 18.0559 13.8868 18.3623C13.5965 18.6688 13.2255 18.822 12.7739 18.822C12.3223 18.822 11.9513 18.6688 11.661 18.3623C11.3707 18.0559 11.2255 17.693 11.2255 17.2736C11.2255 16.8542 11.3787 16.4913 11.6852 16.1849C11.9917 15.8784 12.3546 15.7252 12.7739 15.7252C13.1933 15.7252 13.5562 15.8784 13.8626 16.1849C14.1691 16.4913 14.3223 16.8542 14.3223 17.2736ZM11.2255 9.04779C11.2255 9.46715 11.0723 9.83005 10.7658 10.1365C10.4594 10.443 10.0965 10.5962 9.67713 10.5962C9.25778 10.5962 8.89488 10.443 8.58843 10.1365C8.28197 9.83005 8.12875 9.46715 8.12875 9.04779C8.12875 8.62844 8.27391 8.26553 8.56423 7.95908C8.85455 7.65263 9.22552 7.49941 9.67713 7.49941C10.1287 7.49941 10.4997 7.65263 10.79 7.95908C11.0804 8.26553 11.2255 8.62844 11.2255 9.04779Z" fill="#00C5F7"/>
</svg>
