<svg width="20" height="18" viewBox="0 0 20 18" fill="none" xmlns="http://www.w3.org/2000/svg">
<path d="M7.275 16H12.725L12.225 14H7.775L7.275 16ZM7 12H13C14.3833 12 15.5627 11.5123 16.538 10.537C17.5133 9.56167 18.0007 8.38267 18 7C18 5.61667 17.5123 4.43733 16.537 3.462C15.5617 2.48667 14.3827 1.99933 13 2H7C5.61667 2 4.43733 2.48767 3.462 3.463C2.48667 4.43833 1.99933 5.61733 2 7C2 8.38333 2.48767 9.56267 3.463 10.538C4.43833 11.5133 5.61733 12.0007 7 12ZM10 9C9.45 9 8.979 8.804 8.587 8.412C8.195 8.02 7.99933 7.54933 8 7C8 6.45 8.196 5.979 8.588 5.587C8.98 5.195 9.45067 4.99933 10 5C10.55 5 11.021 5.196 11.413 5.588C11.805 5.98 12.0007 6.45067 12 7C12 7.55 11.804 8.021 11.412 8.413C11.02 8.805 10.5493 9.00067 10 9ZM4.5 6C4.78333 6 5.021 5.904 5.213 5.712C5.405 5.52 5.50067 5.28267 5.5 5C5.5 4.71667 5.404 4.479 5.212 4.287C5.02 4.095 4.78267 3.99933 4.5 4C4.21667 4 3.979 4.096 3.787 4.288C3.595 4.48 3.49933 4.71733 3.5 5C3.5 5.28333 3.596 5.521 3.788 5.713C3.98 5.905 4.21733 6.00067 4.5 6ZM2 18V16H5.225L5.75 13.9C4.1 13.6167 2.72933 12.829 1.638 11.537C0.546667 10.245 0.000666667 8.73267 0 7C0 5.05 0.679333 3.39567 2.038 2.037C3.39667 0.678334 5.05067 -0.000666176 7 4.90436e-07H13C14.95 4.90436e-07 16.6043 0.679334 17.963 2.038C19.3217 3.39667 20.0007 5.05067 20 7C20 8.73333 19.454 10.246 18.362 11.538C17.27 12.83 15.8993 13.6173 14.25 13.9L14.775 16H18V18H2ZM10 11C11.1 11 12.0417 10.6083 12.825 9.825C13.6083 9.04167 14 8.1 14 7C14 5.9 13.6083 4.95833 12.825 4.175C12.0417 3.39167 11.1 3 10 3C8.9 3 7.95833 3.39167 7.175 4.175C6.39167 4.95833 6 5.9 6 7C6 8.1 6.39167 9.04167 7.175 9.825C7.95833 10.6083 8.9 11 10 11Z" fill="#00C5F7"/>
</svg>
