<svg width="24" height="20" viewBox="0 0 24 20" fill="none" xmlns="http://www.w3.org/2000/svg">
<path d="M-2.40059 32.0008V27.2008H-7.20059V32.0008H-9.60059V20.0008H-7.20059V24.8008H-2.40059V20.0008H-0.00058651V32.0008H-2.40059ZM4.79941 32.0008V22.4008H1.43941V20.0008H10.3194V22.4008H7.19941V32.0008H4.79941ZM11.9994 32.0008V20.0008H14.3994L17.7594 28.1608H17.9994L21.5994 20.0008H23.9994V32.0008H21.5994V24.5608H21.3594L18.7194 30.5608H17.2794L14.6394 24.5608H14.3994V32.0008H11.9994ZM33.5994 32.0008H26.3994V20.0008H28.7994V29.6008H33.5994V32.0008ZM10.5594 3.68078L5.03941 9.20078L10.5594 14.7208L9.11941 17.6008L0.719414 9.20078L9.11941 0.800781L10.5594 3.68078ZM13.4394 14.7208L18.9594 9.20078L13.4394 3.68078L14.8794 0.800781L23.2794 9.20078L14.8794 17.6008L13.4394 14.7208Z" fill="#00C5F7"/>
</svg>
