<svg width="127" height="127" viewBox="0 0 127 127" fill="none" xmlns="http://www.w3.org/2000/svg">
<rect x="0.207031" y="0.285156" width="126.624" height="126.624" rx="63.3121" fill="#00C5F7"/>
<path d="M35.4254 57.9494C35.4368 58.1999 35.4539 58.5074 35.4766 58.8718C35.5108 59.2362 35.5848 59.5892 35.6987 59.9308C35.8125 60.2724 35.9947 60.5457 36.2453 60.7506C35.9606 60.9442 35.6702 61.0809 35.3741 61.1606C35.0781 61.2517 34.7877 61.2745 34.503 61.2289C34.4233 61.2061 34.3379 61.1777 34.2468 61.1435C34.1557 61.1207 34.0305 61.0866 33.871 61.041C33.6091 60.9613 33.3017 60.9442 32.9487 60.9898C32.5957 61.0353 32.2256 61.0923 31.8384 61.1606C31.4627 61.2403 31.0926 61.2801 30.7282 61.2801C30.1361 61.2801 29.5439 61.1777 28.9518 60.9727C28.3597 60.7563 27.8245 60.4261 27.3462 59.982C26.8679 59.5379 26.5036 58.9742 26.253 58.291C26.0025 57.6078 25.9285 56.7879 26.031 55.8314C26.0993 55.1709 26.2872 54.5674 26.5947 54.0208C26.9021 53.4629 27.2779 52.9846 27.722 52.5861C28.1775 52.1761 28.6557 51.863 29.1568 51.6466C29.6692 51.4189 30.1645 51.3107 30.6428 51.3221C31.0072 51.3335 31.2862 51.3449 31.4797 51.3562C31.6847 51.3676 31.9466 51.3961 32.2654 51.4417C32.459 51.4644 32.7039 51.436 32.9999 51.3562C33.296 51.2765 33.5921 51.1911 33.8881 51.1C34.1956 50.9976 34.4575 50.9463 34.6738 50.9463C35.0041 50.9349 35.2375 50.9463 35.3741 50.9805C35.5108 51.0032 35.6247 51.026 35.7158 51.0488C35.6474 51.2538 35.5905 51.5612 35.5449 51.9712C35.4994 52.3811 35.4652 52.848 35.4425 53.3718C35.4311 53.8842 35.4197 54.4194 35.4083 54.9774C35.3969 55.5353 35.3912 56.0705 35.3912 56.5829C35.4026 57.0954 35.414 57.5509 35.4254 57.9494ZM29.003 56.378C29.0258 56.9473 29.1283 57.3914 29.3105 57.7103C29.5041 58.0177 29.7318 58.2341 29.9937 58.3593C30.267 58.4846 30.5289 58.5472 30.7794 58.5472C31.2805 58.5586 31.6505 58.365 31.8897 57.9665C32.1288 57.5679 32.2427 57.0157 32.2313 56.3097C32.2313 56.1161 32.2085 55.8883 32.163 55.6264C32.1288 55.3645 32.0605 55.1083 31.958 54.8578C31.8669 54.6073 31.7359 54.3966 31.5651 54.2258C31.4057 54.055 31.1951 53.9696 30.9332 53.9696C30.4093 53.9696 29.9482 54.1632 29.5496 54.5503C29.1625 54.9375 28.9803 55.5467 29.003 56.378ZM43.9433 51.1513C44.1711 51.0943 44.3817 51.1513 44.5753 51.3221C44.7689 51.4929 44.9397 51.7263 45.0877 52.0224C45.2471 52.3071 45.3781 52.6031 45.4806 52.9106C45.5831 53.2067 45.6628 53.4572 45.7197 53.6621C45.7767 53.8671 45.8051 53.9696 45.8051 53.9696C45.8051 53.9696 45.6685 53.9981 45.3952 54.055C45.1333 54.1006 44.8031 54.1973 44.4045 54.3454C44.0173 54.482 43.6302 54.6927 43.243 54.9774C43.0153 55.1482 42.7989 55.3531 42.5939 55.5923C42.389 55.8314 42.2125 56.1389 42.0644 56.5146C41.9164 56.879 41.8082 57.363 41.7399 57.9665C41.7057 58.2739 41.7001 58.5928 41.7228 58.923C41.7456 59.2532 41.757 59.5322 41.757 59.76C41.7684 59.9649 41.7968 60.113 41.8424 60.2041C41.8993 60.2838 41.9449 60.3521 41.979 60.409C41.831 60.5457 41.5577 60.6994 41.1592 60.8702C40.772 61.0296 40.345 61.1093 39.8781 61.1093C39.4226 61.1093 39.0867 60.9613 38.8703 60.6652C38.654 60.3692 38.5458 59.9592 38.5458 59.4354C38.5458 59.3102 38.5401 59.0369 38.5287 58.6156C38.5287 58.1828 38.523 57.6647 38.5117 57.0612C38.5117 56.4577 38.506 55.8314 38.4946 55.1823C38.4946 54.5333 38.4889 53.9297 38.4775 53.3718C38.4775 52.8024 38.4718 52.3412 38.4604 51.9882C38.4604 51.6352 38.4604 51.4587 38.4604 51.4587C38.5743 51.436 38.7679 51.4189 39.0412 51.4075C39.3258 51.3961 39.6333 51.4075 39.9635 51.4417C40.2937 51.4758 40.6012 51.5555 40.8859 51.6808C41.0225 51.7377 41.2047 51.7947 41.4325 51.8516C41.6716 51.8971 41.8993 51.9199 42.1157 51.9199C42.3434 51.9199 42.5085 51.8858 42.611 51.8174C42.8274 51.658 43.0437 51.5214 43.2601 51.4075C43.4878 51.2936 43.7156 51.2082 43.9433 51.1513ZM60.1057 58.8718C60.1171 59.0084 60.1512 59.1792 60.2082 59.3842C60.2765 59.5778 60.3391 59.7543 60.3961 59.9137C60.4644 60.0731 60.4985 60.1528 60.4985 60.1528C60.4416 60.2211 60.322 60.3464 60.1398 60.5286C59.9576 60.7108 59.7242 60.8759 59.4395 61.0239C59.1662 61.1606 58.8531 61.2004 58.5001 61.1435C57.8738 61.0296 57.4468 60.7677 57.219 60.3578C57.0027 59.9478 56.8888 59.481 56.8774 58.9572C56.8774 58.8661 56.8831 58.6896 56.8945 58.4277C56.9059 58.1658 56.9116 57.8754 56.9116 57.5565C56.923 57.2263 56.923 56.9189 56.9116 56.6342C56.9116 56.3381 56.8888 56.1218 56.8433 55.9851C56.7749 55.7232 56.6725 55.5638 56.5358 55.5069C56.3992 55.4499 56.2568 55.4613 56.1088 55.541C55.9608 55.6093 55.8355 55.7232 55.733 55.8826C55.6305 56.0421 55.5793 56.2129 55.5793 56.3951C55.5679 56.6797 55.5622 56.9246 55.5622 57.1295C55.5622 57.3345 55.5679 57.6021 55.5793 57.9323C55.5793 58.012 55.5907 58.1601 55.6135 58.3764C55.6362 58.5928 55.6647 58.8376 55.6989 59.1109C55.733 59.3842 55.7672 59.6518 55.8013 59.9137C55.8469 60.1642 55.8924 60.3692 55.938 60.5286C55.6533 60.7336 55.3174 60.9044 54.9302 61.041C54.5544 61.1777 54.0705 61.1777 53.4784 61.041C53.1709 60.9727 52.9432 60.8304 52.7951 60.614C52.6471 60.3976 52.5446 60.1471 52.4877 59.8624C52.4421 59.5664 52.4194 59.2646 52.4194 58.9572C52.4194 58.6497 52.4194 58.365 52.4194 58.1031C52.4194 57.9779 52.4251 57.7786 52.4364 57.5053C52.4592 57.232 52.4706 56.9473 52.4706 56.6513C52.4706 56.3438 52.4421 56.099 52.3852 55.9168C52.3396 55.7688 52.2656 55.6777 52.1631 55.6435C52.0721 55.598 51.9923 55.5809 51.924 55.5923C51.7418 55.6037 51.5824 55.6549 51.4458 55.746C51.3205 55.8371 51.2351 56.025 51.1895 56.3097C51.1668 56.4463 51.1497 56.674 51.1383 56.9929C51.1383 57.3003 51.1383 57.6306 51.1383 57.9836C51.1383 58.3252 51.1383 58.6269 51.1383 58.8888C51.1497 59.1507 51.1611 59.3045 51.1725 59.35C51.2066 59.5094 51.275 59.629 51.3774 59.7087C51.4799 59.777 51.5312 59.8112 51.5312 59.8112C51.5312 59.8112 51.4685 59.8852 51.3433 60.0333C51.2294 60.1699 51.07 60.3293 50.865 60.5115C50.66 60.6937 50.4209 60.8531 50.1476 60.9898C49.8743 61.115 49.5783 61.1606 49.2594 61.1264C48.952 61.1036 48.6616 60.9442 48.3883 60.6482C48.1264 60.3521 47.9898 59.9422 47.9784 59.4183L47.9271 52.8594C47.9157 52.4494 47.8702 52.1135 47.7905 51.8516C47.7222 51.5897 47.688 51.4587 47.688 51.4587C47.8019 51.436 48.0068 51.4189 48.3029 51.4075C48.599 51.3961 48.9292 51.4075 49.2936 51.4417C49.658 51.4644 49.9882 51.5441 50.2843 51.6808C50.4665 51.7605 50.6714 51.7947 50.8992 51.7833C51.1383 51.7605 51.3433 51.6979 51.5141 51.5954C51.7077 51.4929 51.9012 51.4018 52.0948 51.3221C52.2998 51.2424 52.5048 51.1911 52.7097 51.1684C52.9489 51.1456 53.2392 51.1684 53.5808 51.2367C53.9225 51.305 54.2755 51.4303 54.6399 51.6125C54.8676 51.7263 55.1352 51.806 55.4426 51.8516C55.7501 51.8971 55.9608 51.8801 56.0746 51.8003C56.3024 51.6409 56.5415 51.5043 56.792 51.3904C57.0539 51.2765 57.3158 51.2025 57.5777 51.1684C57.7713 51.1456 57.9991 51.157 58.261 51.2025C58.5343 51.2367 58.7962 51.3221 59.0467 51.4587C59.3086 51.5954 59.5306 51.789 59.7128 52.0395C59.9064 52.29 60.026 52.6088 60.0715 52.996C60.1057 53.3262 60.1228 53.7589 60.1228 54.2941C60.1341 54.8179 60.1341 55.3759 60.1228 55.968C60.1114 56.5488 60.1 57.1011 60.0886 57.6249C60.0886 58.1373 60.0943 58.5529 60.1057 58.8718ZM68.2328 51.2367C69.0185 51.3392 69.5878 51.5669 69.9408 51.9199C70.3052 52.2729 70.5102 52.6885 70.5557 53.1668C70.6127 53.6451 70.5614 54.1347 70.402 54.6357C70.3109 54.9204 70.1743 55.2848 69.9921 55.7289C69.8213 56.1616 69.6391 56.6057 69.4455 57.0612C69.2633 57.5167 69.0925 57.9266 68.9331 58.291C68.7737 58.644 68.6655 58.8945 68.6085 59.0426C68.4263 59.4639 68.21 59.9137 67.9595 60.3919C67.709 60.8588 67.43 61.2972 67.1225 61.7072C66.8265 62.1171 66.5133 62.453 66.1831 62.7149C65.8642 62.9768 65.5511 63.1078 65.2436 63.1078C64.8337 63.1078 64.4978 63.0053 64.2359 62.8003C63.9854 62.5954 63.7975 62.3392 63.6722 62.0317C63.547 61.7356 63.4672 61.4453 63.4331 61.1606C63.7291 61.2403 64.0024 61.2346 64.253 61.1435C64.5035 61.0638 64.7198 60.9442 64.902 60.7848C65.0728 60.6254 65.1753 60.4432 65.2095 60.2382C65.255 60.0333 65.2664 59.8511 65.2436 59.6916C65.1867 59.054 65.0102 58.365 64.7141 57.6249L62.2033 51.4075C62.3741 51.3847 62.5961 51.3562 62.8694 51.3221C63.1541 51.2765 63.4502 51.2708 63.7576 51.305C64.0765 51.3278 64.3725 51.4132 64.6458 51.5612C64.9305 51.6979 65.1639 51.9313 65.3461 52.2615C65.4144 52.3754 65.4942 52.5519 65.5853 52.791C65.6877 53.0188 65.7902 53.2636 65.8927 53.5255C66.0066 53.776 66.0977 53.9924 66.166 54.1746C66.2913 54.4479 66.4222 54.6699 66.5589 54.8407C66.7069 55.0001 66.8549 55.0855 67.003 55.0969C67.1282 55.1083 67.2535 55.0628 67.3787 54.9603C67.504 54.8464 67.6065 54.7041 67.6862 54.5333C67.7545 54.3738 67.8342 54.1347 67.9253 53.8159C68.0164 53.497 68.0904 53.2294 68.1474 53.0131C68.2498 52.6145 68.3011 52.2729 68.3011 51.9882C68.3125 51.7036 68.2897 51.453 68.2328 51.2367ZM30.4549 69.1171C31.2975 69.1171 32.0149 69.2367 32.6071 69.4758C33.2106 69.7149 33.6718 70.011 33.9906 70.364C34.3094 70.717 34.4632 71.0643 34.4518 71.4059C34.4518 71.5881 34.3721 71.7931 34.2127 72.0208C34.0532 72.2486 33.8426 72.4422 33.5807 72.6016C33.3301 72.7496 33.0512 72.8066 32.7437 72.7724C32.8234 72.5674 32.7722 72.3738 32.59 72.1916C32.4078 72.0095 32.1459 71.8614 31.8043 71.7475C31.4627 71.6223 31.0926 71.554 30.694 71.5426C30.2385 71.5198 29.9311 71.571 29.7717 71.6963C29.6122 71.8102 29.5211 71.9354 29.4984 72.0721C29.4642 72.2201 29.5325 72.3511 29.7033 72.4649C29.8741 72.5674 30.0962 72.6642 30.3695 72.7553C30.6542 72.835 30.9502 72.909 31.2577 72.9774C31.5765 73.0343 31.8669 73.0855 32.1288 73.1311C32.4021 73.1766 32.6128 73.2222 32.7608 73.2677C33.444 73.4727 33.9451 73.7403 34.2639 74.0705C34.5827 74.3894 34.7877 74.731 34.8788 75.0954C34.9813 75.4598 35.0211 75.8185 34.9984 76.1715C34.9756 76.7408 34.8276 77.2191 34.5543 77.6062C34.2924 77.982 33.9621 78.2838 33.5636 78.5115C33.1764 78.7393 32.7665 78.9101 32.3338 79.0239C31.9124 79.1264 31.5139 79.1947 31.1381 79.2289C30.7737 79.2631 30.4947 79.2801 30.3012 79.2801C29.709 79.2688 29.1511 79.2061 28.6273 79.0923C28.1148 78.9898 27.6707 78.8531 27.295 78.6823C26.9306 78.5115 26.6687 78.3293 26.5092 78.1357C26.3954 77.9991 26.2872 77.8055 26.1847 77.555C26.0822 77.3045 26.0196 77.0369 25.9968 76.7522C25.9854 76.4561 26.0481 76.1771 26.1847 75.9152C26.3214 75.642 26.5719 75.4199 26.9363 75.2491C27.0046 75.4768 27.1868 75.6818 27.4828 75.864C27.7903 76.0462 28.1547 76.1942 28.576 76.3081C29.0087 76.422 29.4357 76.5017 29.8571 76.5472C30.267 76.5814 30.6542 76.5757 31.0186 76.5302C31.3829 76.4846 31.5822 76.3536 31.6164 76.1373C31.6392 76.0234 31.5822 75.9096 31.4456 75.7957C31.3089 75.6818 31.0584 75.585 30.694 75.5053C30.3069 75.4142 29.9652 75.3459 29.6692 75.3003C29.3845 75.2434 29.0998 75.1808 28.8151 75.1125C28.2799 74.9758 27.8131 74.7594 27.4145 74.4634C27.016 74.1673 26.7142 73.8143 26.5092 73.4044C26.3157 72.9831 26.2473 72.539 26.3043 72.0721C26.3954 71.4002 26.6402 70.848 27.0388 70.4153C27.4487 69.9825 27.9554 69.658 28.5589 69.4417C29.1625 69.2253 29.7944 69.1171 30.4549 69.1171ZM41.872 69.1684C42.8855 69.0887 43.7395 69.2595 44.4341 69.6808C45.1287 70.0907 45.6582 70.6658 46.0226 71.4059C46.387 72.1347 46.5749 72.9432 46.5863 73.8314C46.6091 74.6513 46.4895 75.38 46.2276 76.0177C45.9657 76.644 45.607 77.1792 45.1515 77.6233C44.696 78.056 44.1836 78.3863 43.6143 78.614C43.0563 78.8417 42.4812 78.9556 41.8891 78.9556C41.7638 78.9556 41.5987 78.9727 41.3938 79.0069C41.2002 79.0296 41.0408 79.0923 40.9155 79.1947C40.8358 79.2745 40.7789 79.3599 40.7447 79.451C40.7219 79.542 40.7162 79.6502 40.7276 79.7755C40.7504 79.9805 40.7959 80.1228 40.8643 80.2025C40.944 80.2936 41.0123 80.3904 41.0692 80.4929C40.944 80.6295 40.7675 80.7776 40.5397 80.937C40.312 81.0964 40.033 81.2217 39.7028 81.3128C39.3839 81.4038 39.0025 81.4152 38.5584 81.3469C38.2851 81.3014 38.0459 81.1249 37.841 80.8174C37.636 80.51 37.5278 80.0943 37.5164 79.5705L37.4652 71.628C37.4652 70.9903 37.4253 70.4722 37.3456 70.0736C37.2659 69.6637 37.2261 69.4587 37.2261 69.4587C37.3741 69.4132 37.6075 69.3733 37.9264 69.3392C38.2566 69.305 38.5982 69.3278 38.9512 69.4075C39.0879 69.4417 39.2587 69.4815 39.4636 69.5271C39.68 69.5612 39.9134 69.5612 40.1639 69.5271C40.4942 69.4929 40.8244 69.4303 41.1546 69.3392C41.4849 69.2367 41.724 69.1797 41.872 69.1684ZM42.1966 76.2739C42.5609 76.2739 42.9026 76.0861 43.2214 75.7103C43.5402 75.3231 43.6997 74.7822 43.6997 74.0876C43.6997 73.6207 43.6199 73.2279 43.4605 72.909C43.3125 72.5788 43.1246 72.334 42.8969 72.1746C42.6691 72.0038 42.4471 71.9184 42.2307 71.9184C42.0144 71.9184 41.7923 71.9354 41.5646 71.9696C41.3482 72.0038 41.1546 72.1347 40.9838 72.3625C40.8244 72.5902 40.7219 72.9944 40.6764 73.5752C40.6194 74.3267 40.665 74.8961 40.813 75.2833C40.9724 75.6704 41.1831 75.9323 41.445 76.069C41.7069 76.2056 41.9574 76.2739 42.1966 76.2739ZM54.8351 69.2367C55.6208 69.3392 56.1901 69.5669 56.5432 69.9199C56.9075 70.2729 57.1125 70.6885 57.1581 71.1668C57.215 71.6451 57.1638 72.1347 57.0043 72.6357C56.9132 72.9204 56.7766 73.2848 56.5944 73.7289C56.4236 74.1616 56.2414 74.6057 56.0478 75.0612C55.8656 75.5167 55.6948 75.9266 55.5354 76.291C55.376 76.644 55.2678 76.8945 55.2109 77.0426C55.0287 77.4639 54.8123 77.9137 54.5618 78.3919C54.3113 78.8588 54.0323 79.2972 53.7248 79.7072C53.4288 80.1171 53.1156 80.453 52.7854 80.7149C52.4666 80.9768 52.1534 81.1078 51.846 81.1078C51.436 81.1078 51.1001 81.0053 50.8382 80.8003C50.5877 80.5954 50.3998 80.3392 50.2745 80.0317C50.1493 79.7356 50.0696 79.4453 50.0354 79.1606C50.3315 79.2403 50.6048 79.2346 50.8553 79.1435C51.1058 79.0638 51.3221 78.9442 51.5043 78.7848C51.6751 78.6254 51.7776 78.4432 51.8118 78.2382C51.8573 78.0333 51.8687 77.8511 51.846 77.6916C51.789 77.054 51.6125 76.365 51.3165 75.6249L48.8056 69.4075C48.9764 69.3847 49.1984 69.3562 49.4717 69.3221C49.7564 69.2765 50.0525 69.2708 50.3599 69.305C50.6788 69.3278 50.9748 69.4132 51.2481 69.5612C51.5328 69.6979 51.7662 69.9313 51.9484 70.2615C52.0168 70.3754 52.0965 70.5519 52.1876 70.791C52.2901 71.0188 52.3925 71.2636 52.495 71.5255C52.6089 71.776 52.7 71.9924 52.7683 72.1746C52.8936 72.4479 53.0245 72.6699 53.1612 72.8407C53.3092 73.0001 53.4572 73.0855 53.6053 73.0969C53.7305 73.1083 53.8558 73.0628 53.981 72.9603C54.1063 72.8464 54.2088 72.7041 54.2885 72.5333C54.3568 72.3738 54.4365 72.1347 54.5276 71.8159C54.6187 71.497 54.6927 71.2294 54.7497 71.0131C54.8522 70.6145 54.9034 70.2729 54.9034 69.9882C54.9148 69.7036 54.892 69.453 54.8351 69.2367ZM59.8256 79.2118C59.4156 79.2118 59.0854 79.1207 58.8349 78.9385C58.5844 78.7449 58.4079 78.5115 58.3054 78.2382C58.2029 77.9649 58.1631 77.703 58.1858 77.4525C58.22 77.1223 58.3851 76.8205 58.6812 76.5472C58.9772 76.2739 59.3815 76.1373 59.8939 76.1373C60.2469 76.1373 60.5088 76.1658 60.6796 76.2227C60.8618 76.2796 61.0042 76.3992 61.1066 76.5814C61.2091 76.7636 61.323 77.0369 61.4483 77.4013C61.5393 77.6632 61.528 77.9365 61.4141 78.2211C61.3116 78.4944 61.1237 78.7279 60.8504 78.9215C60.5771 79.115 60.2355 79.2118 59.8256 79.2118ZM72.5527 71.6621C72.5072 71.9013 72.4047 72.1233 72.2453 72.3283C72.0858 72.5333 71.898 72.7041 71.6816 72.8407C71.4766 72.966 71.2774 73.0343 71.0838 73.0457C70.8902 73.0571 70.7308 72.9887 70.6055 72.8407C70.8219 72.6927 70.8731 72.5503 70.7592 72.4137C70.6568 72.2771 70.4803 72.1689 70.2297 72.0892C69.9792 72.0095 69.7344 71.9867 69.4953 72.0208C68.9031 72.1119 68.4647 72.3681 68.1801 72.7895C67.8954 73.1994 67.7132 73.672 67.6335 74.2072C67.5765 74.6627 67.6221 75.0726 67.7701 75.437C67.9295 75.79 68.1459 76.0747 68.4192 76.291C68.7039 76.496 69.0113 76.6042 69.3415 76.6156C70.0817 76.6269 70.6966 76.5188 71.1863 76.291C71.6759 76.0633 72.0574 75.8014 72.3307 75.5053C72.6153 75.1979 72.8089 74.9473 72.9114 74.7538C73.1847 74.9473 73.3441 75.2263 73.3897 75.5907C73.4352 75.9551 73.3783 76.348 73.2189 76.7693C73.0594 77.1906 72.8089 77.5948 72.4673 77.982C72.1257 78.3692 71.7101 78.688 71.2204 78.9385C70.7308 79.1777 70.1728 79.2972 69.5465 79.2972C69.2163 79.2972 68.8234 79.2574 68.3679 79.1777C67.9125 79.098 67.4456 78.9499 66.9673 78.7336C66.5005 78.5172 66.0677 78.2041 65.6692 77.7941C65.282 77.3842 64.9803 76.8547 64.7639 76.2056C64.5589 75.5565 64.4963 74.7594 64.576 73.8143C64.633 73.0855 64.8265 72.4422 65.1568 71.8842C65.4984 71.3148 65.914 70.8366 66.4037 70.4494C66.8933 70.0509 67.4057 69.7491 67.9409 69.5441C68.4875 69.3278 69.0056 69.2139 69.4953 69.2025C69.9849 69.1911 70.429 69.2652 70.8276 69.4246C71.2261 69.584 71.562 69.7947 71.8353 70.0566C72.1086 70.3071 72.3079 70.5747 72.4332 70.8594C72.5584 71.144 72.5983 71.4116 72.5527 71.6621ZM85.0837 73.8314C85.1862 74.7879 85.1122 75.6078 84.8616 76.291C84.6111 76.9742 84.241 77.5379 83.7514 77.982C83.2731 78.4261 82.7322 78.7563 82.1287 78.9727C81.5366 79.1777 80.9445 79.2801 80.3523 79.2801C79.7716 79.2801 79.1795 79.1777 78.5759 78.9727C77.9838 78.7563 77.4486 78.4261 76.9704 77.982C76.5035 77.5379 76.1391 76.9742 75.8772 76.291C75.6267 75.6078 75.5527 74.7879 75.6551 73.8314C75.7576 72.9546 76.0195 72.186 76.4409 71.5255C76.8736 70.865 77.4201 70.3469 78.0806 69.9712C78.7524 69.584 79.4869 69.3676 80.284 69.3221C80.3296 69.3107 80.3751 69.2765 80.4207 69.2196C80.4776 69.1513 80.5687 69.0943 80.6939 69.0488C80.8306 68.9919 81.0356 68.9748 81.3089 68.9976C81.9579 69.1797 82.5501 69.4929 83.0852 69.937C83.6204 70.3811 84.0645 70.9334 84.4175 71.5938C84.7819 72.2543 85.004 73.0001 85.0837 73.8314ZM80.1986 76.5472C80.563 76.5472 80.8761 76.4618 81.138 76.291C81.4 76.1202 81.6106 75.9039 81.77 75.642C81.9295 75.3687 82.0433 75.084 82.1116 74.7879C82.1914 74.4919 82.2312 74.2243 82.2312 73.9851C82.2312 73.4955 82.1515 73.114 81.9921 72.8407C81.8327 72.5674 81.4683 72.3226 80.8989 72.1062C80.7395 72.0379 80.6313 71.9468 80.5744 71.833C80.5174 71.7191 80.432 71.6565 80.3182 71.6451C79.9424 71.5995 79.6236 71.702 79.3617 71.9525C79.0997 72.203 78.9005 72.539 78.7638 72.9603C78.6272 73.3816 78.5589 73.8371 78.5589 74.3267C78.5589 74.8164 78.65 75.2263 78.8322 75.5565C79.0257 75.8868 79.2478 76.1373 79.4983 76.3081C79.7602 76.4675 79.9936 76.5472 80.1986 76.5472ZM99.7516 76.8718C99.763 77.0084 99.7972 77.1792 99.8541 77.3842C99.9224 77.5778 99.9851 77.7543 100.042 77.9137C100.11 78.0731 100.144 78.1528 100.144 78.1528C100.088 78.2211 99.968 78.3464 99.7858 78.5286C99.6036 78.7108 99.3702 78.8759 99.0855 79.0239C98.8122 79.1606 98.499 79.2004 98.146 79.1435C97.5197 79.0296 97.0927 78.7677 96.865 78.3578C96.6486 77.9478 96.5348 77.481 96.5234 76.9572C96.5234 76.8661 96.5291 76.6896 96.5404 76.4277C96.5518 76.1658 96.5575 75.8754 96.5575 75.5565C96.5689 75.2263 96.5689 74.9189 96.5575 74.6342C96.5575 74.3381 96.5348 74.1218 96.4892 73.9851C96.4209 73.7232 96.3184 73.5638 96.1818 73.5069C96.0451 73.4499 95.9028 73.4613 95.7547 73.541C95.6067 73.6093 95.4814 73.7232 95.379 73.8826C95.2765 74.0421 95.2252 74.2129 95.2252 74.3951C95.2138 74.6797 95.2082 74.9246 95.2082 75.1295C95.2082 75.3345 95.2138 75.6021 95.2252 75.9323C95.2252 76.012 95.2366 76.1601 95.2594 76.3764C95.2822 76.5928 95.3106 76.8376 95.3448 77.1109C95.379 77.3842 95.4131 77.6518 95.4473 77.9137C95.4928 78.1642 95.5384 78.3692 95.5839 78.5286C95.2993 78.7336 94.9633 78.9044 94.5762 79.041C94.2004 79.1777 93.7164 79.1777 93.1243 79.041C92.8169 78.9727 92.5891 78.8304 92.4411 78.614C92.293 78.3976 92.1906 78.1471 92.1336 77.8624C92.0881 77.5664 92.0653 77.2646 92.0653 76.9572C92.0653 76.6497 92.0653 76.365 92.0653 76.1031C92.0653 75.9779 92.071 75.7786 92.0824 75.5053C92.1052 75.232 92.1165 74.9473 92.1165 74.6513C92.1165 74.3438 92.0881 74.099 92.0311 73.9168C91.9856 73.7688 91.9116 73.6777 91.8091 73.6435C91.718 73.598 91.6383 73.5809 91.57 73.5923C91.3878 73.6037 91.2283 73.6549 91.0917 73.746C90.9664 73.8371 90.881 74.025 90.8355 74.3097C90.8127 74.4463 90.7956 74.674 90.7842 74.9929C90.7842 75.3003 90.7842 75.6306 90.7842 75.9836C90.7842 76.3252 90.7842 76.6269 90.7842 76.8888C90.7956 77.1507 90.807 77.3045 90.8184 77.35C90.8526 77.5094 90.9209 77.629 91.0234 77.7087C91.1259 77.777 91.1771 77.8112 91.1771 77.8112C91.1771 77.8112 91.1145 77.8852 90.9892 78.0333C90.8753 78.1699 90.7159 78.3293 90.511 78.5115C90.306 78.6937 90.0669 78.8531 89.7936 78.9898C89.5203 79.115 89.2242 79.1606 88.9054 79.1264C88.5979 79.1036 88.3075 78.9442 88.0343 78.6482C87.7723 78.3521 87.6357 77.9422 87.6243 77.4183L87.5731 70.8594C87.5617 70.4494 87.5161 70.1135 87.4364 69.8516C87.3681 69.5897 87.3339 69.4587 87.3339 69.4587C87.4478 69.436 87.6528 69.4189 87.9488 69.4075C88.2449 69.3961 88.5751 69.4075 88.9395 69.4417C89.3039 69.4644 89.6341 69.5441 89.9302 69.6808C90.1124 69.7605 90.3174 69.7947 90.5451 69.7833C90.7842 69.7605 90.9892 69.6979 91.16 69.5954C91.3536 69.4929 91.5472 69.4018 91.7408 69.3221C91.9457 69.2424 92.1507 69.1911 92.3557 69.1684C92.5948 69.1456 92.8852 69.1684 93.2268 69.2367C93.5684 69.305 93.9214 69.4303 94.2858 69.6125C94.5135 69.7263 94.7811 69.806 95.0886 69.8516C95.396 69.8971 95.6067 69.8801 95.7206 69.8003C95.9483 69.6409 96.1874 69.5043 96.438 69.3904C96.6999 69.2765 96.9618 69.2025 97.2237 69.1684C97.4173 69.1456 97.645 69.157 97.9069 69.2025C98.1802 69.2367 98.4421 69.3221 98.6926 69.4587C98.9545 69.5954 99.1766 69.789 99.3588 70.0395C99.5523 70.29 99.6719 70.6088 99.7175 70.996C99.7516 71.3262 99.7687 71.7589 99.7687 72.2941C99.7801 72.8179 99.7801 73.3759 99.7687 73.968C99.7573 74.5488 99.7459 75.1011 99.7345 75.6249C99.7345 76.1373 99.7402 76.5529 99.7516 76.8718Z" fill="#1E1E1E"/>
<rect width="17.0288" height="6.54953" rx="3.27477" transform="matrix(1 0 0 -1 82.5128 58.6855)" fill="white"/>
<rect width="22.3776" height="6.54953" rx="3.27477" transform="matrix(1 0 0 -1 77.1639 66.873)" fill="white"/>
</svg>
