<svg width="127" height="127" viewBox="0 0 127 127" fill="none" xmlns="http://www.w3.org/2000/svg">
<rect x="0.206909" y="0.285156" width="126.624" height="126.624" fill="#00C5F7"/>
<path d="M35.4251 57.9494C35.4365 58.1999 35.4536 58.5074 35.4764 58.8718C35.5105 59.2362 35.5846 59.5892 35.6984 59.9308C35.8123 60.2724 35.9945 60.5457 36.245 60.7506C35.9603 60.9442 35.67 61.0809 35.3739 61.1606C35.0778 61.2517 34.7875 61.2745 34.5028 61.2289C34.4231 61.2061 34.3377 61.1777 34.2466 61.1435C34.1555 61.1207 34.0302 61.0866 33.8708 61.041C33.6089 60.9613 33.3014 60.9442 32.9484 60.9898C32.5954 61.0353 32.2254 61.0923 31.8382 61.1606C31.4624 61.2403 31.0923 61.2801 30.7279 61.2801C30.1358 61.2801 29.5437 61.1777 28.9515 60.9727C28.3594 60.7563 27.8242 60.4261 27.346 59.982C26.8677 59.5379 26.5033 58.9742 26.2528 58.291C26.0023 57.6078 25.9283 56.7879 26.0307 55.8314C26.0991 55.1709 26.287 54.5674 26.5944 54.0208C26.9019 53.4629 27.2776 52.9846 27.7217 52.5861C28.1772 52.1761 28.6555 51.863 29.1565 51.6466C29.6689 51.4189 30.1643 51.3107 30.6425 51.3221C31.0069 51.3335 31.2859 51.3449 31.4795 51.3562C31.6845 51.3676 31.9464 51.3961 32.2652 51.4417C32.4588 51.4644 32.7036 51.436 32.9997 51.3562C33.2957 51.2765 33.5918 51.1911 33.8879 51.1C34.1953 50.9976 34.4572 50.9463 34.6736 50.9463C35.0038 50.9349 35.2373 50.9463 35.3739 50.9805C35.5105 51.0032 35.6244 51.026 35.7155 51.0488C35.6472 51.2538 35.5903 51.5612 35.5447 51.9712C35.4992 52.3811 35.465 52.848 35.4422 53.3718C35.4308 53.8842 35.4194 54.4194 35.4081 54.9774C35.3967 55.5353 35.391 56.0705 35.391 56.5829C35.4024 57.0954 35.4138 57.5509 35.4251 57.9494ZM29.0028 56.378C29.0256 56.9473 29.128 57.3914 29.3102 57.7103C29.5038 58.0177 29.7316 58.2341 29.9935 58.3593C30.2668 58.4846 30.5287 58.5472 30.7792 58.5472C31.2802 58.5586 31.6503 58.365 31.8894 57.9665C32.1286 57.5679 32.2424 57.0157 32.231 56.3097C32.231 56.1161 32.2083 55.8883 32.1627 55.6264C32.1286 55.3645 32.0602 55.1083 31.9578 54.8578C31.8667 54.6073 31.7357 54.3966 31.5649 54.2258C31.4055 54.055 31.1948 53.9696 30.9329 53.9696C30.4091 53.9696 29.9479 54.1632 29.5494 54.5503C29.1622 54.9375 28.98 55.5467 29.0028 56.378ZM43.9431 51.1513C44.1708 51.0943 44.3815 51.1513 44.5751 51.3221C44.7686 51.4929 44.9395 51.7263 45.0875 52.0224C45.2469 52.3071 45.3779 52.6031 45.4803 52.9106C45.5828 53.2067 45.6625 53.4572 45.7195 53.6621C45.7764 53.8671 45.8049 53.9696 45.8049 53.9696C45.8049 53.9696 45.6682 53.9981 45.3949 54.055C45.133 54.1006 44.8028 54.1973 44.4043 54.3454C44.0171 54.482 43.6299 54.6927 43.2428 54.9774C43.015 55.1482 42.7987 55.3531 42.5937 55.5923C42.3887 55.8314 42.2122 56.1389 42.0642 56.5146C41.9162 56.879 41.808 57.363 41.7397 57.9665C41.7055 58.2739 41.6998 58.5928 41.7226 58.923C41.7454 59.2532 41.7567 59.5322 41.7567 59.76C41.7681 59.9649 41.7966 60.113 41.8421 60.2041C41.8991 60.2838 41.9446 60.3521 41.9788 60.409C41.8308 60.5457 41.5575 60.6994 41.1589 60.8702C40.7718 61.0296 40.3447 61.1093 39.8779 61.1093C39.4224 61.1093 39.0865 60.9613 38.8701 60.6652C38.6537 60.3692 38.5456 59.9592 38.5456 59.4354C38.5456 59.3102 38.5399 59.0369 38.5285 58.6156C38.5285 58.1828 38.5228 57.6647 38.5114 57.0612C38.5114 56.4577 38.5057 55.8314 38.4943 55.1823C38.4943 54.5333 38.4886 53.9297 38.4772 53.3718C38.4772 52.8024 38.4716 52.3412 38.4602 51.9882C38.4602 51.6352 38.4602 51.4587 38.4602 51.4587C38.574 51.436 38.7676 51.4189 39.0409 51.4075C39.3256 51.3961 39.633 51.4075 39.9633 51.4417C40.2935 51.4758 40.601 51.5555 40.8856 51.6808C41.0223 51.7377 41.2045 51.7947 41.4322 51.8516C41.6713 51.8971 41.8991 51.9199 42.1154 51.9199C42.3432 51.9199 42.5083 51.8858 42.6108 51.8174C42.8271 51.658 43.0435 51.5214 43.2598 51.4075C43.4876 51.2936 43.7153 51.2082 43.9431 51.1513ZM60.1054 58.8718C60.1168 59.0084 60.151 59.1792 60.2079 59.3842C60.2762 59.5778 60.3389 59.7543 60.3958 59.9137C60.4641 60.0731 60.4983 60.1528 60.4983 60.1528C60.4414 60.2211 60.3218 60.3464 60.1396 60.5286C59.9574 60.7108 59.724 60.8759 59.4393 61.0239C59.166 61.1606 58.8529 61.2004 58.4999 61.1435C57.8736 61.0296 57.4465 60.7677 57.2188 60.3578C57.0024 59.9478 56.8886 59.481 56.8772 58.9572C56.8772 58.8661 56.8829 58.6896 56.8943 58.4277C56.9057 58.1658 56.9113 57.8754 56.9113 57.5565C56.9227 57.2263 56.9227 56.9189 56.9113 56.6342C56.9113 56.3381 56.8886 56.1218 56.843 55.9851C56.7747 55.7232 56.6722 55.5638 56.5356 55.5069C56.3989 55.4499 56.2566 55.4613 56.1086 55.541C55.9605 55.6093 55.8353 55.7232 55.7328 55.8826C55.6303 56.0421 55.579 56.2129 55.579 56.3951C55.5677 56.6797 55.562 56.9246 55.562 57.1295C55.562 57.3345 55.5677 57.6021 55.579 57.9323C55.579 58.012 55.5904 58.1601 55.6132 58.3764C55.636 58.5928 55.6645 58.8376 55.6986 59.1109C55.7328 59.3842 55.7669 59.6518 55.8011 59.9137C55.8466 60.1642 55.8922 60.3692 55.9377 60.5286C55.6531 60.7336 55.3171 60.9044 54.93 61.041C54.5542 61.1777 54.0703 61.1777 53.4781 61.041C53.1707 60.9727 52.9429 60.8304 52.7949 60.614C52.6469 60.3976 52.5444 60.1471 52.4874 59.8624C52.4419 59.5664 52.4191 59.2646 52.4191 58.9572C52.4191 58.6497 52.4191 58.365 52.4191 58.1031C52.4191 57.9779 52.4248 57.7786 52.4362 57.5053C52.459 57.232 52.4704 56.9473 52.4704 56.6513C52.4704 56.3438 52.4419 56.099 52.385 55.9168C52.3394 55.7688 52.2654 55.6777 52.1629 55.6435C52.0718 55.598 51.9921 55.5809 51.9238 55.5923C51.7416 55.6037 51.5822 55.6549 51.4455 55.746C51.3203 55.8371 51.2349 56.025 51.1893 56.3097C51.1665 56.4463 51.1494 56.674 51.1381 56.9929C51.1381 57.3003 51.1381 57.6306 51.1381 57.9836C51.1381 58.3252 51.1381 58.6269 51.1381 58.8888C51.1494 59.1507 51.1608 59.3045 51.1722 59.35C51.2064 59.5094 51.2747 59.629 51.3772 59.7087C51.4797 59.777 51.5309 59.8112 51.5309 59.8112C51.5309 59.8112 51.4683 59.8852 51.343 60.0333C51.2292 60.1699 51.0697 60.3293 50.8648 60.5115C50.6598 60.6937 50.4207 60.8531 50.1474 60.9898C49.8741 61.115 49.578 61.1606 49.2592 61.1264C48.9517 61.1036 48.6614 60.9442 48.3881 60.6482C48.1262 60.3521 47.9895 59.9422 47.9781 59.4183L47.9269 52.8594C47.9155 52.4494 47.87 52.1135 47.7902 51.8516C47.7219 51.5897 47.6878 51.4587 47.6878 51.4587C47.8016 51.436 48.0066 51.4189 48.3027 51.4075C48.5987 51.3961 48.929 51.4075 49.2933 51.4417C49.6577 51.4644 49.988 51.5441 50.284 51.6808C50.4662 51.7605 50.6712 51.7947 50.8989 51.7833C51.1381 51.7605 51.343 51.6979 51.5138 51.5954C51.7074 51.4929 51.901 51.4018 52.0946 51.3221C52.2995 51.2424 52.5045 51.1911 52.7095 51.1684C52.9486 51.1456 53.239 51.1684 53.5806 51.2367C53.9222 51.305 54.2752 51.4303 54.6396 51.6125C54.8674 51.7263 55.1349 51.806 55.4424 51.8516C55.7499 51.8971 55.9605 51.8801 56.0744 51.8003C56.3021 51.6409 56.5413 51.5043 56.7918 51.3904C57.0537 51.2765 57.3156 51.2025 57.5775 51.1684C57.7711 51.1456 57.9988 51.157 58.2607 51.2025C58.534 51.2367 58.7959 51.3221 59.0464 51.4587C59.3083 51.5954 59.5304 51.789 59.7126 52.0395C59.9062 52.29 60.0257 52.6088 60.0713 52.996C60.1054 53.3262 60.1225 53.7589 60.1225 54.2941C60.1339 54.8179 60.1339 55.3759 60.1225 55.968C60.1111 56.5488 60.0997 57.1011 60.0884 57.6249C60.0884 58.1373 60.094 58.5529 60.1054 58.8718ZM68.2325 51.2367C69.0182 51.3392 69.5876 51.5669 69.9406 51.9199C70.305 52.2729 70.5099 52.6885 70.5555 53.1668C70.6124 53.6451 70.5612 54.1347 70.4018 54.6357C70.3107 54.9204 70.174 55.2848 69.9918 55.7289C69.821 56.1616 69.6388 56.6057 69.4453 57.0612C69.2631 57.5167 69.0922 57.9266 68.9328 58.291C68.7734 58.644 68.6652 58.8945 68.6083 59.0426C68.4261 59.4639 68.2097 59.9137 67.9592 60.3919C67.7087 60.8588 67.4297 61.2972 67.1223 61.7072C66.8262 62.1171 66.5131 62.453 66.1828 62.7149C65.864 62.9768 65.5508 63.1078 65.2434 63.1078C64.8335 63.1078 64.4975 63.0053 64.2356 62.8003C63.9851 62.5954 63.7972 62.3392 63.672 62.0317C63.5467 61.7356 63.467 61.4453 63.4328 61.1606C63.7289 61.2403 64.0022 61.2346 64.2527 61.1435C64.5032 61.0638 64.7196 60.9442 64.9018 60.7848C65.0726 60.6254 65.1751 60.4432 65.2092 60.2382C65.2548 60.0333 65.2662 59.8511 65.2434 59.6916C65.1865 59.054 65.01 58.365 64.7139 57.6249L62.203 51.4075C62.3738 51.3847 62.5959 51.3562 62.8692 51.3221C63.1539 51.2765 63.4499 51.2708 63.7574 51.305C64.0762 51.3278 64.3723 51.4132 64.6456 51.5612C64.9302 51.6979 65.1637 51.9313 65.3459 52.2615C65.4142 52.3754 65.4939 52.5519 65.585 52.791C65.6875 53.0188 65.79 53.2636 65.8925 53.5255C66.0063 53.776 66.0974 53.9924 66.1658 54.1746C66.291 54.4479 66.422 54.6699 66.5586 54.8407C66.7066 55.0001 66.8547 55.0855 67.0027 55.0969C67.128 55.1083 67.2532 55.0628 67.3785 54.9603C67.5037 54.8464 67.6062 54.7041 67.6859 54.5333C67.7543 54.3738 67.834 54.1347 67.9251 53.8159C68.0162 53.497 68.0902 53.2294 68.1471 53.0131C68.2496 52.6145 68.3008 52.2729 68.3008 51.9882C68.3122 51.7036 68.2895 51.453 68.2325 51.2367ZM30.4547 69.1171C31.2973 69.1171 32.0147 69.2367 32.6068 69.4758C33.2103 69.7149 33.6715 70.011 33.9904 70.364C34.3092 70.717 34.4629 71.0643 34.4515 71.4059C34.4515 71.5881 34.3718 71.7931 34.2124 72.0208C34.053 72.2486 33.8423 72.4422 33.5804 72.6016C33.3299 72.7496 33.0509 72.8066 32.7435 72.7724C32.8232 72.5674 32.7719 72.3738 32.5897 72.1916C32.4075 72.0095 32.1456 71.8614 31.804 71.7475C31.4624 71.6223 31.0923 71.554 30.6938 71.5426C30.2383 71.5198 29.9308 71.571 29.7714 71.6963C29.612 71.8102 29.5209 71.9354 29.4981 72.0721C29.464 72.2201 29.5323 72.3511 29.7031 72.4649C29.8739 72.5674 30.096 72.6642 30.3692 72.7553C30.6539 72.835 30.95 72.909 31.2574 72.9774C31.5763 73.0343 31.8667 73.0855 32.1286 73.1311C32.4019 73.1766 32.6125 73.2222 32.7605 73.2677C33.4438 73.4727 33.9448 73.7403 34.2637 74.0705C34.5825 74.3894 34.7875 74.731 34.8786 75.0954C34.981 75.4598 35.0209 75.8185 34.9981 76.1715C34.9753 76.7408 34.8273 77.2191 34.554 77.6062C34.2921 77.982 33.9619 78.2838 33.5633 78.5115C33.1762 78.7393 32.7662 78.9101 32.3335 79.0239C31.9122 79.1264 31.5137 79.1947 31.1379 79.2289C30.7735 79.2631 30.4945 79.2801 30.3009 79.2801C29.7088 79.2688 29.1508 79.2061 28.627 79.0923C28.1146 78.9898 27.6705 78.8531 27.2947 78.6823C26.9303 78.5115 26.6684 78.3293 26.509 78.1357C26.3951 77.9991 26.287 77.8055 26.1845 77.555C26.082 77.3045 26.0194 77.0369 25.9966 76.7522C25.9852 76.4561 26.0478 76.1771 26.1845 75.9152C26.3211 75.642 26.5716 75.4199 26.936 75.2491C27.0043 75.4768 27.1865 75.6818 27.4826 75.864C27.7901 76.0462 28.1544 76.1942 28.5758 76.3081C29.0085 76.422 29.4355 76.5017 29.8568 76.5472C30.2668 76.5814 30.6539 76.5757 31.0183 76.5302C31.3827 76.4846 31.582 76.3536 31.6161 76.1373C31.6389 76.0234 31.582 75.9096 31.4453 75.7957C31.3087 75.6818 31.0582 75.585 30.6938 75.5053C30.3066 75.4142 29.965 75.3459 29.6689 75.3003C29.3843 75.2434 29.0996 75.1808 28.8149 75.1125C28.2797 74.9758 27.8128 74.7594 27.4143 74.4634C27.0157 74.1673 26.714 73.8143 26.509 73.4044C26.3154 72.9831 26.2471 72.539 26.304 72.0721C26.3951 71.4002 26.64 70.848 27.0385 70.4153C27.4484 69.9825 27.9552 69.658 28.5587 69.4417C29.1622 69.2253 29.7942 69.1171 30.4547 69.1171ZM41.8718 69.1684C42.8852 69.0887 43.7393 69.2595 44.4339 69.6808C45.1285 70.0907 45.658 70.6658 46.0224 71.4059C46.3868 72.1347 46.5747 72.9432 46.5861 73.8314C46.6088 74.6513 46.4893 75.38 46.2274 76.0177C45.9655 76.644 45.6068 77.1792 45.1513 77.6233C44.6958 78.056 44.1834 78.3863 43.614 78.614C43.056 78.8417 42.481 78.9556 41.8889 78.9556C41.7636 78.9556 41.5985 78.9727 41.3935 79.0069C41.1999 79.0296 41.0405 79.0923 40.9153 79.1947C40.8355 79.2745 40.7786 79.3599 40.7444 79.451C40.7217 79.542 40.716 79.6502 40.7274 79.7755C40.7501 79.9805 40.7957 80.1228 40.864 80.2025C40.9437 80.2936 41.012 80.3904 41.069 80.4929C40.9437 80.6295 40.7672 80.7776 40.5395 80.937C40.3117 81.0964 40.0327 81.2217 39.7025 81.3128C39.3837 81.4038 39.0022 81.4152 38.5581 81.3469C38.2848 81.3014 38.0457 81.1249 37.8407 80.8174C37.6358 80.51 37.5276 80.0943 37.5162 79.5705L37.4649 71.628C37.4649 70.9903 37.4251 70.4722 37.3454 70.0736C37.2657 69.6637 37.2258 69.4587 37.2258 69.4587C37.3739 69.4132 37.6073 69.3733 37.9261 69.3392C38.2564 69.305 38.598 69.3278 38.951 69.4075C39.0876 69.4417 39.2584 69.4815 39.4634 69.5271C39.6797 69.5612 39.9132 69.5612 40.1637 69.5271C40.4939 69.4929 40.8242 69.4303 41.1544 69.3392C41.4846 69.2367 41.7237 69.1797 41.8718 69.1684ZM42.1963 76.2739C42.5607 76.2739 42.9023 76.0861 43.2212 75.7103C43.54 75.3231 43.6994 74.7822 43.6994 74.0876C43.6994 73.6207 43.6197 73.2279 43.4603 72.909C43.3122 72.5788 43.1244 72.334 42.8966 72.1746C42.6689 72.0038 42.4468 71.9184 42.2305 71.9184C42.0141 71.9184 41.7921 71.9354 41.5643 71.9696C41.348 72.0038 41.1544 72.1347 40.9836 72.3625C40.8242 72.5902 40.7217 72.9944 40.6761 73.5752C40.6192 74.3267 40.6647 74.8961 40.8128 75.2833C40.9722 75.6704 41.1829 75.9323 41.4448 76.069C41.7067 76.2056 41.9572 76.2739 42.1963 76.2739ZM54.8348 69.2367C55.6205 69.3392 56.1899 69.5669 56.5429 69.9199C56.9073 70.2729 57.1123 70.6885 57.1578 71.1668C57.2147 71.6451 57.1635 72.1347 57.0041 72.6357C56.913 72.9204 56.7763 73.2848 56.5941 73.7289C56.4233 74.1616 56.2411 74.6057 56.0476 75.0612C55.8654 75.5167 55.6946 75.9266 55.5351 76.291C55.3757 76.644 55.2675 76.8945 55.2106 77.0426C55.0284 77.4639 54.8121 77.9137 54.5615 78.3919C54.311 78.8588 54.032 79.2972 53.7246 79.7072C53.4285 80.1171 53.1154 80.453 52.7851 80.7149C52.4663 80.9768 52.1532 81.1078 51.8457 81.1078C51.4358 81.1078 51.0999 81.0053 50.8379 80.8003C50.5874 80.5954 50.3995 80.3392 50.2743 80.0317C50.149 79.7356 50.0693 79.4453 50.0352 79.1606C50.3312 79.2403 50.6045 79.2346 50.855 79.1435C51.1055 79.0638 51.3219 78.9442 51.5041 78.7848C51.6749 78.6254 51.7774 78.4432 51.8115 78.2382C51.8571 78.0333 51.8685 77.8511 51.8457 77.6916C51.7888 77.054 51.6123 76.365 51.3162 75.6249L48.8053 69.4075C48.9761 69.3847 49.1982 69.3562 49.4715 69.3221C49.7562 69.2765 50.0522 69.2708 50.3597 69.305C50.6785 69.3278 50.9746 69.4132 51.2479 69.5612C51.5326 69.6979 51.766 69.9313 51.9482 70.2615C52.0165 70.3754 52.0962 70.5519 52.1873 70.791C52.2898 71.0188 52.3923 71.2636 52.4948 71.5255C52.6086 71.776 52.6997 71.9924 52.7681 72.1746C52.8933 72.4479 53.0243 72.6699 53.1609 72.8407C53.309 73.0001 53.457 73.0855 53.605 73.0969C53.7303 73.1083 53.8555 73.0628 53.9808 72.9603C54.1061 72.8464 54.2085 72.7041 54.2883 72.5333C54.3566 72.3738 54.4363 72.1347 54.5274 71.8159C54.6185 71.497 54.6925 71.2294 54.7494 71.0131C54.8519 70.6145 54.9032 70.2729 54.9032 69.9882C54.9145 69.7036 54.8918 69.453 54.8348 69.2367ZM59.8253 79.2118C59.4154 79.2118 59.0852 79.1207 58.8347 78.9385C58.5841 78.7449 58.4076 78.5115 58.3052 78.2382C58.2027 77.9649 58.1628 77.703 58.1856 77.4525C58.2198 77.1223 58.3849 76.8205 58.6809 76.5472C58.977 76.2739 59.3812 76.1373 59.8937 76.1373C60.2467 76.1373 60.5086 76.1658 60.6794 76.2227C60.8616 76.2796 61.0039 76.3992 61.1064 76.5814C61.2089 76.7636 61.3227 77.0369 61.448 77.4013C61.5391 77.6632 61.5277 77.9365 61.4138 78.2211C61.3114 78.4944 61.1235 78.7279 60.8502 78.9215C60.5769 79.115 60.2353 79.2118 59.8253 79.2118ZM72.5525 71.6621C72.5069 71.9013 72.4044 72.1233 72.245 72.3283C72.0856 72.5333 71.8977 72.7041 71.6814 72.8407C71.4764 72.966 71.2771 73.0343 71.0835 73.0457C70.89 73.0571 70.7305 72.9887 70.6053 72.8407C70.8216 72.6927 70.8729 72.5503 70.759 72.4137C70.6565 72.2771 70.48 72.1689 70.2295 72.0892C69.979 72.0095 69.7342 71.9867 69.495 72.0208C68.9029 72.1119 68.4645 72.3681 68.1798 72.7895C67.8951 73.1994 67.7129 73.672 67.6332 74.2072C67.5763 74.6627 67.6218 75.0726 67.7699 75.437C67.9293 75.79 68.1457 76.0747 68.4189 76.291C68.7036 76.496 69.0111 76.6042 69.3413 76.6156C70.0815 76.6269 70.6964 76.5188 71.186 76.291C71.6757 76.0633 72.0571 75.8014 72.3304 75.5053C72.6151 75.1979 72.8087 74.9473 72.9112 74.7538C73.1845 74.9473 73.3439 75.2263 73.3894 75.5907C73.435 75.9551 73.378 76.348 73.2186 76.7693C73.0592 77.1906 72.8087 77.5948 72.4671 77.982C72.1255 78.3692 71.7098 78.688 71.2202 78.9385C70.7305 79.1777 70.1726 79.2972 69.5463 79.2972C69.216 79.2972 68.8232 79.2574 68.3677 79.1777C67.9122 79.098 67.4453 78.9499 66.9671 78.7336C66.5002 78.5172 66.0675 78.2041 65.6689 77.7941C65.2818 77.3842 64.98 76.8547 64.7637 76.2056C64.5587 75.5565 64.4961 74.7594 64.5758 73.8143C64.6327 73.0855 64.8263 72.4422 65.1565 71.8842C65.4981 71.3148 65.9138 70.8366 66.4034 70.4494C66.8931 70.0509 67.4055 69.7491 67.9407 69.5441C68.4873 69.3278 69.0054 69.2139 69.495 69.2025C69.9847 69.1911 70.4288 69.2652 70.8273 69.4246C71.2259 69.584 71.5618 69.7947 71.8351 70.0566C72.1084 70.3071 72.3077 70.5747 72.4329 70.8594C72.5582 71.144 72.598 71.4116 72.5525 71.6621ZM85.0834 73.8314C85.1859 74.7879 85.1119 75.6078 84.8614 76.291C84.6109 76.9742 84.2408 77.5379 83.7512 77.982C83.2729 78.4261 82.732 78.7563 82.1285 78.9727C81.5364 79.1777 80.9442 79.2801 80.3521 79.2801C79.7713 79.2801 79.1792 79.1777 78.5757 78.9727C77.9836 78.7563 77.4484 78.4261 76.9701 77.982C76.5032 77.5379 76.1388 76.9742 75.8769 76.291C75.6264 75.6078 75.5524 74.7879 75.6549 73.8314C75.7574 72.9546 76.0193 72.186 76.4406 71.5255C76.8733 70.865 77.4199 70.3469 78.0804 69.9712C78.7522 69.584 79.4867 69.3676 80.2838 69.3221C80.3293 69.3107 80.3749 69.2765 80.4204 69.2196C80.4773 69.1513 80.5684 69.0943 80.6937 69.0488C80.8304 68.9919 81.0353 68.9748 81.3086 68.9976C81.9577 69.1797 82.5498 69.4929 83.085 69.937C83.6202 70.3811 84.0643 70.9334 84.4173 71.5938C84.7817 72.2543 85.0037 73.0001 85.0834 73.8314ZM80.1984 76.5472C80.5628 76.5472 80.8759 76.4618 81.1378 76.291C81.3997 76.1202 81.6104 75.9039 81.7698 75.642C81.9292 75.3687 82.0431 75.084 82.1114 74.7879C82.1911 74.4919 82.231 74.2243 82.231 73.9851C82.231 73.4955 82.1513 73.114 81.9918 72.8407C81.8324 72.5674 81.468 72.3226 80.8987 72.1062C80.7393 72.0379 80.6311 71.9468 80.5741 71.833C80.5172 71.7191 80.4318 71.6565 80.3179 71.6451C79.9422 71.5995 79.6233 71.702 79.3614 71.9525C79.0995 72.203 78.9002 72.539 78.7636 72.9603C78.6269 73.3816 78.5586 73.8371 78.5586 74.3267C78.5586 74.8164 78.6497 75.2263 78.8319 75.5565C79.0255 75.8868 79.2475 76.1373 79.4981 76.3081C79.76 76.4675 79.9934 76.5472 80.1984 76.5472ZM99.7514 76.8718C99.7628 77.0084 99.7969 77.1792 99.8539 77.3842C99.9222 77.5778 99.9848 77.7543 100.042 77.9137C100.11 78.0731 100.144 78.1528 100.144 78.1528C100.087 78.2211 99.9677 78.3464 99.7855 78.5286C99.6033 78.7108 99.3699 78.8759 99.0852 79.0239C98.8119 79.1606 98.4988 79.2004 98.1458 79.1435C97.5195 79.0296 97.0925 78.7677 96.8647 78.3578C96.6484 77.9478 96.5345 77.481 96.5231 76.9572C96.5231 76.8661 96.5288 76.6896 96.5402 76.4277C96.5516 76.1658 96.5573 75.8754 96.5573 75.5565C96.5687 75.2263 96.5687 74.9189 96.5573 74.6342C96.5573 74.3381 96.5345 74.1218 96.489 73.9851C96.4206 73.7232 96.3182 73.5638 96.1815 73.5069C96.0449 73.4499 95.9025 73.4613 95.7545 73.541C95.6065 73.6093 95.4812 73.7232 95.3787 73.8826C95.2762 74.0421 95.225 74.2129 95.225 74.3951C95.2136 74.6797 95.2079 74.9246 95.2079 75.1295C95.2079 75.3345 95.2136 75.6021 95.225 75.9323C95.225 76.012 95.2364 76.1601 95.2592 76.3764C95.2819 76.5928 95.3104 76.8376 95.3446 77.1109C95.3787 77.3842 95.4129 77.6518 95.447 77.9137C95.4926 78.1642 95.5381 78.3692 95.5837 78.5286C95.299 78.7336 94.9631 78.9044 94.5759 79.041C94.2001 79.1777 93.7162 79.1777 93.1241 79.041C92.8166 78.9727 92.5889 78.8304 92.4408 78.614C92.2928 78.3976 92.1903 78.1471 92.1334 77.8624C92.0878 77.5664 92.0651 77.2646 92.0651 76.9572C92.0651 76.6497 92.0651 76.365 92.0651 76.1031C92.0651 75.9779 92.0708 75.7786 92.0821 75.5053C92.1049 75.232 92.1163 74.9473 92.1163 74.6513C92.1163 74.3438 92.0878 74.099 92.0309 73.9168C91.9853 73.7688 91.9113 73.6777 91.8088 73.6435C91.7177 73.598 91.638 73.5809 91.5697 73.5923C91.3875 73.6037 91.2281 73.6549 91.0915 73.746C90.9662 73.8371 90.8808 74.025 90.8352 74.3097C90.8125 74.4463 90.7954 74.674 90.784 74.9929C90.784 75.3003 90.784 75.6306 90.784 75.9836C90.784 76.3252 90.784 76.6269 90.784 76.8888C90.7954 77.1507 90.8068 77.3045 90.8182 77.35C90.8523 77.5094 90.9206 77.629 91.0231 77.7087C91.1256 77.777 91.1769 77.8112 91.1769 77.8112C91.1769 77.8112 91.1142 77.8852 90.989 78.0333C90.8751 78.1699 90.7157 78.3293 90.5107 78.5115C90.3057 78.6937 90.0666 78.8531 89.7933 78.9898C89.52 79.115 89.224 79.1606 88.9051 79.1264C88.5977 79.1036 88.3073 78.9442 88.034 78.6482C87.7721 78.3521 87.6355 77.9422 87.6241 77.4183L87.5728 70.8594C87.5614 70.4494 87.5159 70.1135 87.4362 69.8516C87.3679 69.5897 87.3337 69.4587 87.3337 69.4587C87.4476 69.436 87.6525 69.4189 87.9486 69.4075C88.2447 69.3961 88.5749 69.4075 88.9393 69.4417C89.3037 69.4644 89.6339 69.5441 89.93 69.6808C90.1122 69.7605 90.3171 69.7947 90.5449 69.7833C90.784 69.7605 90.989 69.6979 91.1598 69.5954C91.3534 69.4929 91.5469 69.4018 91.7405 69.3221C91.9455 69.2424 92.1505 69.1911 92.3554 69.1684C92.5946 69.1456 92.8849 69.1684 93.2265 69.2367C93.5682 69.305 93.9212 69.4303 94.2856 69.6125C94.5133 69.7263 94.7809 69.806 95.0883 69.8516C95.3958 69.8971 95.6065 69.8801 95.7203 69.8003C95.9481 69.6409 96.1872 69.5043 96.4377 69.3904C96.6996 69.2765 96.9615 69.2025 97.2234 69.1684C97.417 69.1456 97.6448 69.157 97.9067 69.2025C98.18 69.2367 98.4419 69.3221 98.6924 69.4587C98.9543 69.5954 99.1763 69.789 99.3585 70.0395C99.5521 70.29 99.6717 70.6088 99.7172 70.996C99.7514 71.3262 99.7685 71.7589 99.7685 72.2941C99.7798 72.8179 99.7798 73.3759 99.7685 73.968C99.7571 74.5488 99.7457 75.1011 99.7343 75.6249C99.7343 76.1373 99.74 76.5529 99.7514 76.8718Z" fill="#1E1E1E"/>
<rect width="17.0288" height="6.54953" transform="matrix(1 0 0 -1 82.5127 58.6855)" fill="white"/>
<rect width="22.3776" height="6.54953" transform="matrix(1 0 0 -1 77.1639 66.873)" fill="white"/>
</svg>
