<svg width="22" height="20" viewBox="0 0 22 20" fill="none" xmlns="http://www.w3.org/2000/svg">
<path d="M0.200195 8.90006C0.200195 8.50224 0.358231 8.1207 0.639535 7.8394C0.92084 7.5581 1.30237 7.40006 1.7002 7.40006C2.09802 7.40006 2.47955 7.5581 2.76086 7.8394C3.04216 8.1207 3.2002 8.50224 3.2002 8.90006V17.9001C3.2002 18.2979 3.04216 18.6794 2.76086 18.9607C2.47955 19.242 2.09802 19.4001 1.7002 19.4001C1.30237 19.4001 0.92084 19.242 0.639535 18.9607C0.358231 18.6794 0.200195 18.2979 0.200195 17.9001V8.90006ZM12.2002 2.60006V1.04006C12.2002 0.718461 12.3682 0.408861 12.6742 0.311661C13.0339 0.197489 13.4155 0.169771 13.788 0.23076C14.1605 0.291748 14.5133 0.439722 14.8179 0.662666C15.1224 0.88561 15.3701 1.17724 15.5408 1.51387C15.7114 1.85049 15.8003 2.22263 15.8002 2.60006C15.8002 3.79406 15.5818 4.93766 15.1834 5.99126C14.9386 6.63926 15.3826 7.40006 16.0762 7.40006H19.1002C20.5918 7.40006 21.8134 8.61206 21.6754 10.0965C21.449 12.5452 20.9082 14.9547 20.0662 17.2653C19.5838 18.5877 18.2866 19.4001 16.8802 19.4001H13.0498C12.4911 19.3998 11.9402 19.2696 11.4406 19.0197L8.15979 17.3805C7.66018 17.1305 7.10924 17.0003 6.55059 17.0001H5.0002V8.60006H6.15579C6.97779 8.60006 7.66539 8.02046 8.09019 7.31846C8.68233 6.33954 9.6038 5.60356 10.6894 5.24246C11.2078 5.07086 11.713 4.77926 11.9026 4.26566C12.0946 3.74726 12.2002 3.18566 12.2002 2.60006Z" fill="#00C5F7"/>
</svg>
