<svg width="20" height="18" viewBox="0 0 20 18" fill="none" xmlns="http://www.w3.org/2000/svg">
<path d="M7.74983 17.8493C9.52983 17.1493 9.13983 15.2193 8.23983 13.9993C7.34983 12.7493 6.11983 11.8893 4.87983 11.0593C3.99509 10.5017 3.20513 9.80622 2.53983 8.9993C2.25983 8.6693 1.68983 8.0593 2.26983 7.9393C2.85983 7.8193 3.87983 8.3993 4.39983 8.6193C5.30983 8.9993 6.20983 9.4393 7.04983 9.9593L8.05983 8.2593C6.49983 7.2293 4.49983 6.3193 2.63983 6.0493C1.57983 5.8893 0.459833 6.1093 0.099833 7.2593C-0.220167 8.2493 0.289833 9.2493 0.869833 10.0293C2.23983 11.8593 4.36983 12.7393 5.95983 14.3193C6.29983 14.6493 6.70983 15.0393 6.90983 15.4993C7.11983 15.9393 7.06983 15.9693 6.59983 15.9693C5.35983 15.9693 3.80983 14.9993 2.79983 14.3593L1.78983 16.0593C3.31983 16.9993 5.87983 18.4693 7.74983 17.8493ZM18.8398 2.2493C19.0598 2.0293 19.0598 1.6693 18.8398 1.4593L17.5398 0.1593C17.4351 0.0583553 17.2953 0.00195312 17.1498 0.00195312C17.0044 0.00195312 16.8646 0.0583553 16.7598 0.1593L15.7398 1.1793L17.8198 3.2593M8.99983 7.9193V9.9993H11.0798L17.2298 3.8493L15.1498 1.7693L8.99983 7.9193Z" fill="#00C5F7"/>
</svg>
