<svg width="20" height="21" viewBox="0 0 20 21" fill="none" xmlns="http://www.w3.org/2000/svg">
<rect width="20" height="20" transform="translate(0 0.691406)" fill="black"/>
<path d="M10 4.69141C8.36727 4.69141 8.16452 4.69941 7.5269 4.72609C6.88662 4.7581 6.45176 4.85681 6.07025 5.00621C5.67541 5.16095 5.33926 5.36637 5.00845 5.69985C4.67497 6.03067 4.46687 6.36682 4.31481 6.76166C4.16541 7.14316 4.0667 7.57802 4.03468 8.21831C4.00534 8.85859 4 9.06135 4 10.6914C4 12.3215 4.008 12.5269 4.03468 13.1645C4.0667 13.8048 4.16541 14.2397 4.31481 14.6212C4.46954 15.016 4.67497 15.3521 5.00845 15.683C5.33926 16.0164 5.67541 16.2245 6.07025 16.3766C6.45176 16.5233 6.88928 16.6247 7.5269 16.6567C8.16719 16.6861 8.36994 16.6914 10 16.6914C11.6301 16.6914 11.8355 16.6834 12.4731 16.6567C13.1134 16.6247 13.5482 16.5233 13.9297 16.3766C14.3246 16.2219 14.6607 16.0164 14.9916 15.683C15.325 15.3521 15.5331 15.016 15.6852 14.6212C15.8319 14.2397 15.9333 13.8021 15.9653 13.1645C15.9947 12.5242 16 12.3215 16 10.6914C16 9.06135 15.992 8.85592 15.9653 8.21831C15.9333 7.57802 15.8319 7.14049 15.6852 6.76166C15.5305 6.36682 15.325 6.03067 14.9916 5.69985C14.6607 5.36637 14.3246 5.15828 13.9297 5.00621C13.5482 4.85681 13.1107 4.7581 12.4731 4.72609C11.8355 4.69674 11.6327 4.69141 10 4.69141ZM10 5.77189C11.6034 5.77189 11.7928 5.77989 12.4277 5.80657C13.012 5.83325 13.3295 5.93196 13.5402 6.01466C13.823 6.12404 14.0178 6.2521 14.2312 6.46286C14.4393 6.67095 14.57 6.87104 14.6794 7.15383C14.7621 7.36459 14.8608 7.68207 14.8875 8.26633C14.9142 8.89861 14.9222 9.09069 14.9222 10.6941C14.9222 12.2975 14.9142 12.4869 14.8848 13.1218C14.8528 13.7061 14.7568 14.0236 14.6741 14.2343C14.5594 14.5171 14.434 14.7119 14.2232 14.9253C14.0125 15.1334 13.8097 15.2641 13.5322 15.3735C13.3241 15.4562 13.0013 15.5549 12.4144 15.5816C11.7768 15.6083 11.59 15.6163 9.98399 15.6163C8.37795 15.6163 8.1912 15.6083 7.55358 15.5789C6.96932 15.5469 6.64651 15.4509 6.43575 15.3682C6.15029 15.2534 5.95554 15.128 5.74478 14.9173C5.53402 14.7065 5.39795 14.5038 5.29658 14.2263C5.21121 14.0182 5.11516 13.6954 5.08582 13.1085C5.06447 12.4789 5.0538 12.2841 5.0538 10.6861C5.0538 9.08803 5.06447 8.89327 5.08582 8.25566C5.11783 7.66873 5.21387 7.34859 5.29658 7.13783C5.40062 6.85237 5.53402 6.65761 5.74478 6.44685C5.95287 6.23876 6.15029 6.1027 6.43575 5.99599C6.64651 5.91328 6.96132 5.81724 7.54824 5.78789C8.18586 5.76388 8.37261 5.75588 9.97599 5.75588L10 5.77189ZM10 7.6127C8.29524 7.6127 6.91863 8.99198 6.91863 10.6941C6.91863 12.3988 8.29791 13.7754 10 13.7754C11.7048 13.7754 13.0814 12.3962 13.0814 10.6941C13.0814 8.99198 11.7021 7.6127 10 7.6127ZM10 12.695C8.89284 12.695 7.99911 11.8012 7.99911 10.6941C7.99911 9.58692 8.89284 8.69318 10 8.69318C11.1072 8.69318 12.0009 9.58692 12.0009 10.6941C12.0009 11.8012 11.1072 12.695 10 12.695ZM13.9271 7.48998C13.9271 7.89016 13.6016 8.2103 13.2068 8.2103C12.8066 8.2103 12.4864 7.88749 12.4864 7.48998C12.4864 7.09247 12.8119 6.76966 13.2068 6.76966C13.6016 6.76966 13.9271 7.09247 13.9271 7.48998Z" fill="white"/>
</svg>
