<svg width="20" height="21" viewBox="0 0 20 21" fill="none" xmlns="http://www.w3.org/2000/svg">
<rect width="20" height="20" transform="translate(0 0.691406)" fill="black"/>
<g clip-path="url(#clip0_1009_4858)">
<path d="M10 4.69141C6.69156 4.69141 4 7.38297 4 10.6913C4 13.9997 6.69156 16.6913 10 16.6913C13.3084 16.6913 16 13.9997 16 10.6913C16 7.38297 13.3084 4.69141 10 4.69141ZM13.91 7.52112C14.5835 8.35025 14.9982 9.39678 15.0327 10.5376C13.785 10.2793 12.6551 10.3096 11.6578 10.5052C11.4772 10.0828 11.2902 9.68046 11.1015 9.30019C12.1877 8.83225 13.1334 8.23458 13.91 7.52112ZM13.2341 6.83418C12.4632 7.53781 11.5698 8.0588 10.6551 8.44344C9.98369 7.21567 9.34132 6.2911 8.95 5.76568C9.28885 5.69349 9.63996 5.65477 10 5.65477C11.2303 5.65477 12.3584 6.09881 13.2341 6.83418ZM7.97701 6.08031C8.2725 6.46322 8.97633 7.42195 9.73238 8.78601C7.83225 9.40506 5.9885 9.50936 5.10253 9.51906C5.47182 7.9764 6.55213 6.70791 7.97701 6.08031ZM4.96863 10.4849C4.97813 10.4849 4.98732 10.4849 4.99701 10.4849C5.6092 10.4849 6.73081 10.4438 8.05125 10.203C8.8046 10.0656 9.51896 9.88071 10.1893 9.65156C10.3638 9.99933 10.5372 10.3662 10.7054 10.7507C9.76687 11.0529 8.97537 11.4877 8.34842 11.9194C7.29707 12.6434 6.56055 13.4466 6.15838 13.9433C5.41376 13.0651 4.96336 11.9302 4.96336 10.6913C4.96336 10.6221 4.9658 10.5535 4.96863 10.4849ZM6.85257 14.6192C7.19881 14.1833 7.90354 13.3898 8.92296 12.6935C9.61575 12.2203 10.3325 11.8688 11.0704 11.638C11.4985 12.7477 11.864 13.9738 12.0819 15.2757C11.4468 15.5652 10.7423 15.7279 10 15.7279C8.8098 15.7279 7.71549 15.3121 6.85257 14.6192ZM12.9682 14.7569C12.7436 13.5613 12.4087 12.437 12.0215 11.4096C12.9739 11.2489 13.9583 11.282 14.9693 11.5091C14.7512 12.8379 14.0118 13.9929 12.9682 14.7569Z" fill="white"/>
</g>
<defs>
<clipPath id="clip0_1009_4858">
<rect width="12" height="12" fill="white" transform="translate(4 4.69141)"/>
</clipPath>
</defs>
</svg>
