<svg width="28" height="28" viewBox="0 0 28 28" fill="none" xmlns="http://www.w3.org/2000/svg">
<rect x="1.44135" y="1.47309" width="25.5477" height="25.5477" rx="2.01692" fill="white"/>
<g clip-path="url(#clip0_1009_4884)">
<path d="M12.7852 13.7617C13.1201 13.5933 13.3732 13.4057 13.5467 13.203C13.8553 12.8379 14.0076 12.3538 14.0076 11.7537C14.0076 11.1698 13.8553 10.6706 13.5507 10.252C13.0424 9.57024 12.1821 9.22128 10.9658 9.20312H6.147V19.0395H10.6401C11.1464 19.0395 11.6153 18.9961 12.049 18.9073C12.4827 18.8176 12.8579 18.6532 13.1755 18.4132C13.4579 18.2044 13.6939 17.9452 13.8815 17.6396C14.178 17.1777 14.3263 16.6543 14.3263 16.0713C14.3263 15.5065 14.1962 15.0255 13.938 14.6301C13.6768 14.2348 13.2935 13.9453 12.7852 13.7617ZM8.13484 10.9116H10.3052C10.7823 10.9116 11.1756 10.963 11.4842 11.0649C11.8412 11.2132 12.0198 11.5147 12.0198 11.9746C12.0198 12.3871 11.8836 12.6755 11.6143 12.8379C11.343 13.0003 10.991 13.082 10.5594 13.082H8.13484V10.9116ZM11.5669 17.1595C11.3269 17.2755 10.989 17.333 10.5564 17.333H8.13484V14.7098H10.5896C11.0173 14.7128 11.3501 14.7693 11.5881 14.8752C12.0117 15.0668 12.2225 15.4178 12.2225 15.9311C12.2225 16.5363 12.0046 16.9437 11.5669 17.1595Z" fill="black"/>
<path d="M20.7313 9.66016H16.4581V10.8845H20.7313V9.66016Z" fill="black"/>
<path d="M22.2158 14.495C22.127 13.9251 21.9313 13.4239 21.6268 12.9912C21.2929 12.5011 20.8693 12.142 20.354 11.9151C19.8406 11.6872 19.2627 11.5732 18.6193 11.5742C17.5391 11.5742 16.6617 11.9121 15.983 12.5828C15.3062 13.2555 14.9673 14.2227 14.9673 15.4833C14.9673 16.8277 15.3415 17.799 16.0939 18.395C16.8432 18.9921 17.7086 19.2896 18.6909 19.2896C19.88 19.2896 20.8048 18.9356 21.4654 18.2296C21.888 17.7838 22.127 17.3451 22.1794 16.9145H20.2108C20.0968 17.1273 19.9647 17.2937 19.8134 17.4147C19.5391 17.6366 19.1821 17.7475 18.7443 17.7475C18.3278 17.7475 17.9748 17.6557 17.6803 17.4732C17.1942 17.1807 16.9401 16.6684 16.9078 15.9392H22.2803C22.2884 15.3109 22.2682 14.8278 22.2158 14.495ZM16.9562 14.6836C17.0268 14.2106 17.1982 13.8354 17.4706 13.558C17.7429 13.2817 18.1281 13.1425 18.6213 13.1415C19.0762 13.1415 19.4564 13.2716 19.766 13.5328C20.0716 13.796 20.244 14.1783 20.2793 14.6836H16.9562Z" fill="black"/>
</g>
<rect x="1.44135" y="1.47309" width="25.5477" height="25.5477" rx="2.01692" stroke="black" stroke-width="1.34462"/>
<defs>
<clipPath id="clip0_1009_4884">
<rect width="16.1354" height="16.1354" fill="white" transform="translate(6.14723 6.17969)"/>
</clipPath>
</defs>
</svg>
