<svg width="28" height="28" viewBox="0 0 28 28" fill="none" xmlns="http://www.w3.org/2000/svg">
<rect x="1.48751" y="1.47309" width="25.5477" height="25.5477" rx="2.01692" fill="white"/>
<path d="M14.2608 6.17969C12.0655 6.17969 11.7928 6.19045 10.9355 6.22632C10.0745 6.26937 9.48982 6.4021 8.97685 6.60298C8.44594 6.81104 7.99395 7.08726 7.54913 7.53566C7.10072 7.98048 6.82092 8.43247 6.61645 8.96338C6.41556 9.47636 6.28283 10.0611 6.23979 10.922C6.20033 11.7829 6.19315 12.0556 6.19315 14.2474C6.19315 16.4392 6.20392 16.7154 6.23979 17.5727C6.28283 18.4337 6.41556 19.0184 6.61645 19.5314C6.82451 20.0623 7.10072 20.5143 7.54913 20.9591C7.99395 21.4075 8.44594 21.6873 8.97685 21.8918C9.48982 22.0891 10.0781 22.2254 10.9355 22.2684C11.7964 22.3079 12.069 22.3151 14.2608 22.3151C16.4526 22.3151 16.7289 22.3043 17.5862 22.2684C18.4471 22.2254 19.0319 22.0891 19.5448 21.8918C20.0758 21.6837 20.5277 21.4075 20.9726 20.9591C21.421 20.5143 21.7008 20.0623 21.9052 19.5314C22.1025 19.0184 22.2389 18.4301 22.2819 17.5727C22.3214 16.7118 22.3285 16.4392 22.3285 14.2474C22.3285 12.0556 22.3178 11.7794 22.2819 10.922C22.2389 10.0611 22.1025 9.47277 21.9052 8.96338C21.6972 8.43247 21.421 7.98048 20.9726 7.53566C20.5277 7.08726 20.0758 6.80745 19.5448 6.60298C19.0319 6.4021 18.4436 6.26937 17.5862 6.22632C16.7289 6.18686 16.4562 6.17969 14.2608 6.17969ZM14.2608 7.63252C16.4168 7.63252 16.6715 7.64328 17.5252 7.67915C18.3108 7.71502 18.7377 7.84775 19.0211 7.95896C19.4014 8.10603 19.6632 8.27822 19.9502 8.56161C20.23 8.84142 20.4058 9.11046 20.5529 9.49071C20.6641 9.7741 20.7968 10.201 20.8327 10.9866C20.8685 11.8368 20.8793 12.095 20.8793 14.251C20.8793 16.4069 20.8685 16.6616 20.8291 17.5154C20.786 18.301 20.6569 18.7278 20.5457 19.0112C20.3914 19.3915 20.2228 19.6533 19.9394 19.9403C19.656 20.2201 19.3834 20.3959 19.0103 20.543C18.7305 20.6542 18.2965 20.7869 17.5073 20.8228C16.6499 20.8587 16.3988 20.8694 14.2393 20.8694C12.0798 20.8694 11.8287 20.8587 10.9714 20.8192C10.1857 20.7761 9.75169 20.647 9.4683 20.5358C9.08447 20.3816 8.8226 20.213 8.53921 19.9296C8.25581 19.6462 8.07286 19.3735 7.93655 19.0005C7.82176 18.7207 7.69262 18.2866 7.65316 17.4974C7.62446 16.6508 7.61011 16.389 7.61011 14.2402C7.61011 12.0915 7.62446 11.8296 7.65316 10.9722C7.69621 10.183 7.82535 9.75257 7.93655 9.46918C8.07645 9.08535 8.25581 8.82348 8.53921 8.54009C8.81901 8.26028 9.08447 8.07734 9.4683 7.93385C9.75169 7.82264 10.175 7.6935 10.9642 7.65404C11.8215 7.62176 12.0726 7.61099 14.2286 7.61099L14.2608 7.63252ZM14.2608 10.1077C11.9686 10.1077 10.1176 11.9623 10.1176 14.251C10.1176 16.5432 11.9722 18.3942 14.2608 18.3942C16.5531 18.3942 18.4041 16.5396 18.4041 14.251C18.4041 11.9623 16.5495 10.1077 14.2608 10.1077ZM14.2608 16.9414C12.7721 16.9414 11.5704 15.7397 11.5704 14.251C11.5704 12.7623 12.7721 11.5605 14.2608 11.5605C15.7495 11.5605 16.9513 12.7623 16.9513 14.251C16.9513 15.7397 15.7495 16.9414 14.2608 16.9414ZM19.5413 9.9427C19.5413 10.4808 19.1036 10.9113 18.5727 10.9113C18.0346 10.9113 17.6041 10.4772 17.6041 9.9427C17.6041 9.4082 18.0418 8.97414 18.5727 8.97414C19.1036 8.97414 19.5413 9.4082 19.5413 9.9427Z" fill="black"/>
<rect x="1.48751" y="1.47309" width="25.5477" height="25.5477" rx="2.01692" stroke="black" stroke-width="1.34462"/>
</svg>
